<?xml version="1.0" encoding="utf-8"?>
<!-- Generator: Adobe Illustrator 28.0.0, SVG Export Plug-In . SVG Version: 6.00 Build 0)  -->
<svg version="1.1" id="Layer_1" xmlns="http://www.w3.org/2000/svg" xmlns:xlink="http://www.w3.org/1999/xlink" x="0px" y="0px"
	 viewBox="0 0 113.9 113.8" style="enable-background:new 0 0 113.9 113.8;" xml:space="preserve">
<style type="text/css">
	.st0{fill:url(#SVGID_1_);}
	.st1{fill:url(#SVGID_00000096020222424564071220000018380174819626033536_);}
</style>
<linearGradient id="SVGID_1_" gradientUnits="userSpaceOnUse" x1="0" y1="49.0295" x2="96.9331" y2="49.0295">
	<stop  offset="0" style="stop-color:#010101"/>
	<stop  offset="0.328" style="stop-color:#010101"/>
	<stop  offset="0.524" style="stop-color:#010101"/>
	<stop  offset="0.7298" style="stop-color:#010101"/>
	<stop  offset="1" style="stop-color:#010101"/>
</linearGradient>
<path class="st0" d="M0.7,48.3L0.7,48.3l0,0.1c0,0.1,0,0.2,0,0.3v0l0,0l0,0c0,0,0,0,0,0.1c0,0.1,0,0.1,0,0.2l0,0.2l0,0l0,0l0,0l0,0
	l0,0l0,0l0,0l0,0l0,0l0,0c0,0.2,0,0.4-0.1,0.6c0,0.2,0,0.3-0.1,0.5c0,0.1,0,0.1,0,0.2v0l0,0l0,0c0,0.2,0,0.4-0.1,0.6
	c0,0.2,0,0.3,0,0.5v0l0,0.2c0,0.1,0,0.1,0,0.2c0,0.1,0,0.1,0,0.2c0,0,0,0.1,0,0.1c0,0,0,0.1,0,0.1c0,0.1,0,0.1,0,0.2
	c0,0,0,0.1,0,0.1c0,0.2,0,0.4,0,0.7l0,0l0,0v0c0,0.1,0,0.2,0,0.3c0,0.1,0,0.2,0,0.3l0,0l0,0v0v0c0,0,0,0,0,0c0,0,0,0,0,0.1v0v0l0,0
	l0,0c0,0.1,0,0.3,0,0.4c0,0.1,0,0.1,0,0.2c0,0.2,0,0.5,0,0.7c0,0,0,0.1,0,0.1v0.1c0,0.2,0,0.4,0,0.5l0,0.1l0,0v0v0.2
	c0,0.1,0,0.1,0,0.2c0,0,0,0.1,0,0.1c0,0,0,0.1,0,0.1c0,0.1,0,0.1,0,0.2v0.2l0,0.2c0.2,10.8,4.5,21,12.2,28.6
	c7.7,7.6,18,11.8,28.8,11.8c1.7,0,3.4-0.1,5.1-0.3c0.8-0.1,1.5-0.2,2.3-0.3c0,0,0,0,0,0C42.9,94,38,89.4,34.2,84
	c-1.4-2-2.6-4.1-3.7-6.2c-0.2-0.5-0.5-1-0.7-1.5c0-0.1-0.1-0.1-0.1-0.2c-2.7-6-4-12.5-4-19.2c0-9.7,2.9-19,8.5-27
	c1.3-1.8,2.7-3.5,4.2-5.2c4.9-5.2,10.8-9.3,17.5-11.9c2-0.8,4.1-1.4,6.2-1.9c3.5-0.8,7.1-1.2,10.8-1.2c8.6,0,16.8,2.3,24,6.5
	c0,0,0,0,0,0c0,0,0,0,0,0c-0.1-0.1-0.1-0.1-0.2-0.2c-0.1-0.1-0.2-0.2-0.3-0.3c0,0-0.1-0.1-0.1-0.1l0,0l0,0l0,0l0,0
	c-0.1-0.1-0.2-0.2-0.2-0.2c-0.1-0.1-0.2-0.2-0.3-0.2l0,0l0,0l0,0c0,0,0,0,0,0c-0.1-0.1-0.2-0.2-0.3-0.3l0,0l-0.1-0.1
	c0,0,0,0-0.1-0.1c-0.1-0.1-0.3-0.3-0.4-0.4c-0.2-0.1-0.3-0.3-0.5-0.4c-0.1,0-0.1-0.1-0.2-0.1c-0.1-0.1-0.2-0.2-0.3-0.3l-0.2-0.2
	l-0.1-0.1l0,0l-0.1-0.1l0,0c-0.1-0.1-0.3-0.2-0.4-0.3l0,0l0,0l0,0l0,0c-0.1-0.1-0.2-0.2-0.3-0.2l0,0l0,0l0,0l0,0
	c-0.3-0.2-0.6-0.5-1-0.7l0,0l0,0c-0.1-0.1-0.2-0.1-0.3-0.2l-0.1-0.1l-0.1,0c0,0,0,0,0,0c0,0,0,0,0,0l0,0l0,0l0,0l0,0l-0.2-0.1
	l-0.1,0l-0.2-0.2c0,0-0.1,0-0.1-0.1c0,0-0.1-0.1-0.1-0.1l-0.1-0.1l0,0l0,0l0,0l0,0c-0.1-0.1-0.2-0.1-0.3-0.2c0,0,0,0-0.1,0l0,0l0,0
	c-0.2-0.2-0.5-0.3-0.7-0.5l0,0l0,0l0,0c-0.1-0.1-0.2-0.1-0.3-0.2c0,0-0.1,0-0.1-0.1l0,0l0,0c-0.2-0.1-0.3-0.2-0.5-0.3c0,0,0,0,0,0
	l0,0l0,0l0,0c0,0-0.1,0-0.1-0.1c-0.1-0.1-0.2-0.2-0.3-0.2l0,0l0,0l0,0c-0.2-0.1-0.3-0.2-0.5-0.3l0,0l0,0l0,0
	c-0.2-0.1-0.4-0.2-0.5-0.3l-0.3-0.2l0,0c0,0-0.1-0.1-0.1-0.1C86.1,8,86,7.9,86,7.9l0,0l0,0l0,0l0,0c0,0-0.1,0-0.1-0.1
	c-0.1-0.1-0.3-0.2-0.4-0.2l-0.1-0.1c0,0-0.1-0.1-0.1-0.1c-0.1-0.1-0.2-0.1-0.4-0.2c0,0,0,0,0,0c-0.8-0.5-1.6-0.9-2.5-1.3
	c0,0,0,0-0.1,0l0,0l0,0l0,0c-0.2-0.1-0.4-0.2-0.6-0.3l-0.5-0.2l0,0c0,0,0,0,0,0c0,0,0,0,0,0l0,0l0,0l0,0c-0.6-0.3-1.1-0.5-1.6-0.7
	l0,0l0,0l0,0l0,0c-0.1-0.1-0.2-0.1-0.4-0.2l-0.1,0l0,0l0,0l0,0l-0.2-0.1c-0.1,0-0.2-0.1-0.2-0.1c0,0-0.1,0-0.1,0
	c-0.5-0.2-1-0.4-1.4-0.6l-0.2-0.1l0,0l-0.3-0.1c-0.7-0.3-1.4-0.5-2.1-0.7l0,0l0,0c0,0,0,0,0,0c-0.1,0-0.3-0.1-0.4-0.1
	c-0.1,0-0.3-0.1-0.4-0.1c-0.1,0-0.2-0.1-0.3-0.1c-0.3-0.1-0.6-0.2-0.9-0.3l0,0l0,0l0,0l0,0c0,0-0.1,0-0.1,0C72.1,2,72,2,71.9,2l0,0
	l-0.1,0c-0.6-0.2-1.2-0.3-1.8-0.4c-0.4-0.1-0.7-0.2-1.1-0.2c-0.6-0.1-1.2-0.3-1.8-0.4c-0.2,0-0.5-0.1-0.7-0.1l0,0h0h0
	c-0.2,0-0.5-0.1-0.7-0.1c-0.1,0-0.2,0-0.3,0c-0.1,0-0.3,0-0.4-0.1c-0.7-0.1-1.3-0.2-2-0.2c-1.3-0.1-2.6-0.2-3.8-0.3
	c-0.7,0-1.4,0-2.1,0c-1.2,0-2.4,0-3.6,0.1c-0.1,0-0.3,0-0.4,0c-1.3,0.1-2.7,0.2-4,0.4c-0.2,0-0.5,0.1-0.7,0.1c0,0,0,0,0,0
	c0,0,0,0,0,0l0,0L0.7,48.3L0.7,48.3z"/>
<linearGradient id="SVGID_00000017491016160315256020000006760896913871312008_" gradientUnits="userSpaceOnUse" x1="17.0518" y1="64.9556" x2="113.9846" y2="64.9556">
	<stop  offset="0" style="stop-color:#010101"/>
	<stop  offset="0.328" style="stop-color:#010101"/>
	<stop  offset="0.524" style="stop-color:#010101"/>
	<stop  offset="0.7298" style="stop-color:#010101"/>
	<stop  offset="1" style="stop-color:#010101"/>
</linearGradient>
<path style="fill:url(#SVGID_00000017491016160315256020000006760896913871312008_);" d="M113.3,65.6L113.3,65.6L113.3,65.6
	c0-0.2,0-0.3,0-0.3l0,0l0,0l0,0c0-0.1,0-0.2,0-0.3l0-0.1l0-0.1c0,0,0-0.1,0-0.1l0-0.4l0-0.2c0-0.2,0.1-0.5,0.1-0.7l0,0
	c0-0.2,0-0.4,0.1-0.6c0-0.2,0-0.3,0-0.5v0l0-0.2c0-0.1,0-0.2,0-0.3l0,0l0,0c0-0.1,0-0.3,0-0.4v0l0,0c0-0.2,0-0.4,0-0.7v0
	c0-0.2,0-0.4,0-0.7l0-0.1v-0.1l0-0.1c0-0.2,0-0.4,0-0.5c0-0.2,0-0.5,0-0.7l0,0v-0.1c0-0.2,0-0.3,0-0.5v-0.2l0,0c0-0.1,0-0.3,0-0.4
	c0-0.2,0-0.3,0-0.5v0l0-0.1c-0.2-10.8-4.5-21-12.2-28.6c-7.7-7.6-18-11.8-28.8-11.8c-2.5,0-5,0.2-7.4,0.7C71.1,20,76,24.5,79.8,30
	c5.5,7.9,8.5,17.3,8.5,27c0,9.7-2.9,19-8.5,27c-5.4,7.8-12.9,13.7-21.7,17.1c-5.4,2.1-11.2,3.2-17,3.2c-8.6,0-16.8-2.3-24-6.5l0,0
	l0,0l0,0c0,0,0.1,0.1,0.1,0.1l0.1,0.1c0.1,0.1,0.2,0.2,0.3,0.3l0,0l0,0c0.2,0.1,0.3,0.3,0.5,0.5l0,0l0,0c0.1,0.1,0.2,0.2,0.4,0.3
	l0,0l0,0c0.2,0.2,0.4,0.4,0.6,0.6l0,0l0,0c0.1,0.1,0.3,0.2,0.4,0.4l0,0l0.1,0.1l0,0l0.4,0.3l0.1,0.1l0,0c0.1,0.1,0.2,0.2,0.3,0.3
	l0,0l0,0c0.1,0.1,0.2,0.2,0.3,0.3l0,0l0,0c0.1,0.1,0.2,0.1,0.3,0.2l0,0l0,0c0.3,0.2,0.6,0.5,0.9,0.7c0.1,0.1,0.1,0.1,0.2,0.2
	c0.1,0.1,0.2,0.1,0.2,0.2c0,0,0.1,0.1,0.1,0.1l0.1,0.1c0.1,0.1,0.3,0.2,0.4,0.3l0.1,0.1c0.1,0,0.1,0.1,0.2,0.1l0,0l0,0
	c0.1,0.1,0.2,0.1,0.3,0.2l0.1,0.1c0.2,0.2,0.5,0.3,0.7,0.5l0,0l0,0c0.1,0.1,0.2,0.1,0.3,0.2l0.1,0.1l0.3,0.2l0.3,0.2
	c0.1,0.1,0.3,0.2,0.4,0.3c0.2,0.1,0.3,0.2,0.4,0.3h0.4l0.6,0.6c0.1,0.1,0.2,0.1,0.3,0.2c0.2,0.1,0.4,0.2,0.6,0.3l0,0l0,0
	c0.2,0.1,0.3,0.2,0.5,0.3c0.8,0.5,1.7,0.9,2.5,1.3c0.2,0.1,0.4,0.2,0.6,0.3c0,0,0.1,0,0.1,0c0.2,0.1,0.4,0.2,0.5,0.3
	c0.5,0.3,1.1,0.5,1.6,0.7l0,0l0,0c0.1,0.1,0.3,0.1,0.4,0.2c0,0,0.1,0,0.1,0.1c0.2,0.1,0.4,0.1,0.5,0.2c0.4,0.2,0.9,0.4,1.4,0.5l0,0
	l0,0c0.2,0.1,0.3,0.1,0.5,0.2l0,0l0,0c0.7,0.3,1.4,0.5,2.1,0.7l0,0l0,0c0.1,0,0.3,0.1,0.4,0.1l0,0l0,0c0.2,0.1,0.4,0.1,0.6,0.2
	l0.2,0.1c0.3,0.1,0.5,0.1,0.8,0.2c0.1,0,0.3,0.1,0.4,0.1l0,0c1.6,0.4,3.2,0.8,4.7,1.1l0,0l0,0c0.2,0,0.4,0.1,0.7,0.1h0l0,0
	c0.3,0,0.5,0.1,0.7,0.1l0,0l0,0c0.2,0,0.4,0.1,0.7,0.1l0,0c2.6,0.4,5.3,0.6,8,0.6c2.7,0,5.4-0.2,8-0.6l0.1,0c0.2,0,0.4-0.1,0.6-0.1
	l0,0l0,0L113.3,65.6C113.3,65.7,113.3,65.6,113.3,65.6z"/>
</svg>
