<?xml version="1.0" encoding="utf-8"?>
<!-- Generator: Adobe Illustrator 28.0.0, SVG Export Plug-In . SVG Version: 6.00 Build 0)  -->
<svg version="1.1" id="Layer_1" xmlns="http://www.w3.org/2000/svg" xmlns:xlink="http://www.w3.org/1999/xlink" x="0px" y="0px"
	 viewBox="0 0 151.1 158" style="enable-background:new 0 0 151.1 158;" xml:space="preserve">
<style type="text/css">
	.st0{fill:url(#SVGID_1_);}
	.st1{fill:url(#SVGID_00000164472863480174762950000016969557032124184198_);}
	.st2{fill:url(#SVGID_00000173139901744965588830000004691691006353828755_);}
	.st3{fill:url(#SVGID_00000116214585738368601340000015146511313011519883_);}
	.st4{fill:url(#SVGID_00000153707581105433552140000004738358019410952638_);}
	.st5{fill:url(#SVGID_00000050630013186413008430000016873793042463603591_);}
	.st6{fill:url(#SVGID_00000173138390365010060440000012973154192643037361_);}
	.st7{fill:url(#SVGID_00000146474096832673805820000015047601031780090258_);}
	.st8{fill:url(#SVGID_00000147182111840916269150000001798992676566291647_);}
	.st9{fill:url(#SVGID_00000140705378191736730240000007155203488996296868_);}
	.st10{fill:url(#SVGID_00000170985002120465647290000006917291477400783550_);}
	.st11{fill:url(#SVGID_00000173137179375516709870000012357606222408577426_);}
	.st12{fill:url(#SVGID_00000083785403671137364830000010212805939315377339_);}
	.st13{fill:url(#SVGID_00000158747635434654926180000001904553026549707910_);}
	.st14{fill:url(#SVGID_00000171716239250030065480000004959888604365375916_);}
	.st15{fill:url(#SVGID_00000030463100847864100620000016292004098252828040_);}
	.st16{fill:url(#SVGID_00000157997703775929740470000006282822222554684566_);}
	.st17{fill:url(#SVGID_00000077301526085745736930000009380898387011304121_);}
	.st18{fill:url(#SVGID_00000067223877217092362070000002916779644564022673_);}
	.st19{fill:url(#SVGID_00000018936971546320941420000011718861523533172662_);}
	.st20{fill:url(#SVGID_00000060717414948587858190000000999812627764909452_);}
	.st21{fill:url(#SVGID_00000022521139073717466230000004961699972594856095_);}
	.st22{fill:url(#SVGID_00000035521635329261927760000001598220477259243704_);}
	.st23{fill:url(#SVGID_00000060721016087659839260000004871535738935273622_);}
</style>
<g>
	<linearGradient id="SVGID_1_" gradientUnits="userSpaceOnUse" x1="2.320000e-02" y1="139.306" x2="11.6362" y2="139.306">
		<stop  offset="0" style="stop-color:#010101"/>
		<stop  offset="0.328" style="stop-color:#010101"/>
		<stop  offset="0.524" style="stop-color:#010101"/>
		<stop  offset="0.7298" style="stop-color:#010101"/>
		<stop  offset="1" style="stop-color:#010101"/>
	</linearGradient>
	<path class="st0" d="M6.9,146.2c1.8,0,3.5-0.7,4.7-1.9l-1.9-1.9C9,143,8,143.4,6.9,143.4c-2.3,0-4.1-1.8-4.1-4.1
		c0-2.3,1.9-4.1,4.1-4.1c1.1,0,2.1,0.4,2.8,1.1l1.9-2c-1.2-1.2-2.9-1.9-4.7-1.9c-3.8,0-6.9,3.1-6.9,6.9C0,143.1,3.1,146.2,6.9,146.2
		z"/>
	
		<linearGradient id="SVGID_00000161611189547801703910000007014171854004573061_" gradientUnits="userSpaceOnUse" x1="22.8857" y1="139.306" x2="36.6399" y2="139.306">
		<stop  offset="0" style="stop-color:#010101"/>
		<stop  offset="0.328" style="stop-color:#010101"/>
		<stop  offset="0.524" style="stop-color:#010101"/>
		<stop  offset="0.7298" style="stop-color:#010101"/>
		<stop  offset="1" style="stop-color:#010101"/>
	</linearGradient>
	<path style="fill:url(#SVGID_00000161611189547801703910000007014171854004573061_);" d="M36.6,139.3c0-3.8-3.1-6.9-6.9-6.9
		s-6.9,3.1-6.9,6.9c0,3.8,3.1,6.9,6.9,6.9S36.6,143.1,36.6,139.3z M29.8,143.4c-2.3,0-4.1-1.9-4.1-4.1c0-2.3,1.9-4.1,4.1-4.1
		c2.3,0,4.1,1.9,4.1,4.1C33.9,141.6,32,143.4,29.8,143.4z"/>
	
		<linearGradient id="SVGID_00000013178709549329191640000012614098698317802638_" gradientUnits="userSpaceOnUse" x1="48.7959" y1="139.306" x2="62.7496" y2="139.306">
		<stop  offset="0" style="stop-color:#010101"/>
		<stop  offset="0.328" style="stop-color:#010101"/>
		<stop  offset="0.524" style="stop-color:#010101"/>
		<stop  offset="0.7298" style="stop-color:#010101"/>
		<stop  offset="1" style="stop-color:#010101"/>
	</linearGradient>
	<polygon style="fill:url(#SVGID_00000013178709549329191640000012614098698317802638_);" points="62.7,146.2 62.7,132.4 
		59.8,132.4 55.8,142.5 51.8,132.4 48.8,132.4 48.8,146.2 51.5,146.2 51.5,139.3 54.3,146.2 57.3,146.2 60,139.3 60,146.2 	"/>
	
		<linearGradient id="SVGID_00000045587887812306329870000012848367430434614944_" gradientUnits="userSpaceOnUse" x1="74.906" y1="139.306" x2="82.8717" y2="139.306">
		<stop  offset="0" style="stop-color:#010101"/>
		<stop  offset="0.328" style="stop-color:#010101"/>
		<stop  offset="0.524" style="stop-color:#010101"/>
		<stop  offset="0.7298" style="stop-color:#010101"/>
		<stop  offset="1" style="stop-color:#010101"/>
	</linearGradient>
	<path style="fill:url(#SVGID_00000045587887812306329870000012848367430434614944_);" d="M77.6,140.7h1.1c2.3,0,4.1-1.9,4.1-4.1
		c0-2.3-1.8-4.1-4.1-4.1h-3.8v13.8h2.7V140.7z M77.6,135.2h1.1c0.8,0,1.4,0.6,1.4,1.4c0,0.7-0.6,1.4-1.4,1.4h-1.1V135.2z"/>
	
		<linearGradient id="SVGID_00000021828560205779351610000017768236117995682217_" gradientUnits="userSpaceOnUse" x1="93.2141" y1="139.306" x2="106.0789" y2="139.306">
		<stop  offset="0" style="stop-color:#010101"/>
		<stop  offset="0.328" style="stop-color:#010101"/>
		<stop  offset="0.524" style="stop-color:#010101"/>
		<stop  offset="0.7298" style="stop-color:#010101"/>
		<stop  offset="1" style="stop-color:#010101"/>
	</linearGradient>
	<path style="fill:url(#SVGID_00000021828560205779351610000017768236117995682217_);" d="M101.1,132.4h-2.9l-5,13.8h2.9l1.4-3.8
		h4.2l1.4,3.8h2.9L101.1,132.4z M98.5,139.6l1.1-3.1l1.1,3.1H98.5z"/>
	
		<linearGradient id="SVGID_00000016793393652991324570000008305421012456910013_" gradientUnits="userSpaceOnUse" x1="117.8724" y1="139.306" x2="129.3222" y2="139.306">
		<stop  offset="0" style="stop-color:#010101"/>
		<stop  offset="0.328" style="stop-color:#010101"/>
		<stop  offset="0.524" style="stop-color:#010101"/>
		<stop  offset="0.7298" style="stop-color:#010101"/>
		<stop  offset="1" style="stop-color:#010101"/>
	</linearGradient>
	<polygon style="fill:url(#SVGID_00000016793393652991324570000008305421012456910013_);" points="129.3,146.2 129.3,132.4 
		126.6,132.4 126.6,141.6 121.1,132.4 117.9,132.4 117.9,146.2 120.6,146.2 120.6,137 126.1,146.2 	"/>
	
		<linearGradient id="SVGID_00000026852918656923622270000018195602787326168747_" gradientUnits="userSpaceOnUse" x1="141.1157" y1="139.306" x2="151.0415" y2="139.306">
		<stop  offset="0" style="stop-color:#010101"/>
		<stop  offset="0.328" style="stop-color:#010101"/>
		<stop  offset="0.524" style="stop-color:#010101"/>
		<stop  offset="0.7298" style="stop-color:#010101"/>
		<stop  offset="1" style="stop-color:#010101"/>
	</linearGradient>
	<polygon style="fill:url(#SVGID_00000026852918656923622270000018195602787326168747_);" points="144.2,132.4 141.1,132.4 
		144.7,139.6 144.7,146.2 147.4,146.2 147.4,139.6 151,132.4 148,132.4 146.1,136.2 	"/>
	
		<linearGradient id="SVGID_00000044891079919726866310000014349058089674927750_" gradientUnits="userSpaceOnUse" x1="0" y1="154.989" x2="4.0771" y2="154.989">
		<stop  offset="0" style="stop-color:#010101"/>
		<stop  offset="0.328" style="stop-color:#010101"/>
		<stop  offset="0.524" style="stop-color:#010101"/>
		<stop  offset="0.7298" style="stop-color:#010101"/>
		<stop  offset="1" style="stop-color:#010101"/>
	</linearGradient>
	<polygon style="fill:url(#SVGID_00000044891079919726866310000014349058089674927750_);" points="1.6,157.9 2.5,157.9 2.5,152.9 
		4.1,152.9 4.1,152.1 0,152.1 0,152.9 1.6,152.9 	"/>
	
		<linearGradient id="SVGID_00000088840747869585061710000017435957911499209368_" gradientUnits="userSpaceOnUse" x1="8.3976" y1="154.989" x2="13.374" y2="154.989">
		<stop  offset="0" style="stop-color:#010101"/>
		<stop  offset="0.328" style="stop-color:#010101"/>
		<stop  offset="0.524" style="stop-color:#010101"/>
		<stop  offset="0.7298" style="stop-color:#010101"/>
		<stop  offset="1" style="stop-color:#010101"/>
	</linearGradient>
	<path style="fill:url(#SVGID_00000088840747869585061710000017435957911499209368_);" d="M10.5,152.1l-2.1,5.8h0.9l0.4-1.3H12
		l0.5,1.3h0.9l-2.1-5.8H10.5z M10,155.8l0.8-2.5h0l0.8,2.5H10z"/>
	
		<linearGradient id="SVGID_00000048484604766215990200000014678305604222749064_" gradientUnits="userSpaceOnUse" x1="18.5613" y1="154.9889" x2="22.7222" y2="154.9889">
		<stop  offset="0" style="stop-color:#010101"/>
		<stop  offset="0.328" style="stop-color:#010101"/>
		<stop  offset="0.524" style="stop-color:#010101"/>
		<stop  offset="0.7298" style="stop-color:#010101"/>
		<stop  offset="1" style="stop-color:#010101"/>
	</linearGradient>
	<path style="fill:url(#SVGID_00000048484604766215990200000014678305604222749064_);" d="M19.7,153.3c0.1-0.1,0.2-0.2,0.4-0.3
		c0.1-0.1,0.3-0.1,0.5-0.1c0.3,0,0.5,0.1,0.7,0.2c0.2,0.2,0.3,0.4,0.4,0.6h0.9c-0.1-0.5-0.3-0.9-0.7-1.2c-0.4-0.3-0.8-0.5-1.4-0.5
		c-0.5,0-0.8,0.1-1.1,0.3c-0.3,0.2-0.5,0.5-0.7,0.7c-0.1,0.1-0.2,0.3-0.2,0.6c0,0.2-0.1,0.7-0.1,1.4c0,0.7,0,1.1,0.1,1.4
		c0,0.1,0,0.2,0.1,0.3c0,0.1,0.1,0.2,0.1,0.3c0.1,0.3,0.4,0.5,0.7,0.7c0.3,0.2,0.7,0.3,1.1,0.3c0.6,0,1.1-0.2,1.5-0.6
		c0.4-0.4,0.6-0.9,0.6-1.5v-1.2h-2.1v0.8h1.2v0.3c0,0.4-0.1,0.7-0.3,0.9c-0.2,0.2-0.5,0.4-0.9,0.4c-0.2,0-0.4,0-0.5-0.1
		c-0.2-0.1-0.3-0.2-0.4-0.3c-0.1-0.1-0.2-0.3-0.2-0.5c0-0.2-0.1-0.6-0.1-1.2c0-0.6,0-1,0.1-1.2C19.5,153.6,19.6,153.5,19.7,153.3z"
		/>
	
		<linearGradient id="SVGID_00000109016205879891120070000002246490138394540948_" gradientUnits="userSpaceOnUse" x1="28.6654" y1="154.989" x2="32.3864" y2="154.989">
		<stop  offset="0" style="stop-color:#010101"/>
		<stop  offset="0.328" style="stop-color:#010101"/>
		<stop  offset="0.524" style="stop-color:#010101"/>
		<stop  offset="0.7298" style="stop-color:#010101"/>
		<stop  offset="1" style="stop-color:#010101"/>
	</linearGradient>
	<polygon style="fill:url(#SVGID_00000109016205879891120070000002246490138394540948_);" points="28.7,152.1 28.7,157.9 
		32.4,157.9 32.4,157.1 29.5,157.1 29.5,152.1 	"/>
	
		<linearGradient id="SVGID_00000094605069636550799770000006615813418787309474_" gradientUnits="userSpaceOnUse" x1="38.13" y1="154.989" x2="39.0133" y2="154.989">
		<stop  offset="0" style="stop-color:#010101"/>
		<stop  offset="0.328" style="stop-color:#010101"/>
		<stop  offset="0.524" style="stop-color:#010101"/>
		<stop  offset="0.7298" style="stop-color:#010101"/>
		<stop  offset="1" style="stop-color:#010101"/>
	</linearGradient>
	
		<rect x="38.1" y="152.1" style="fill:url(#SVGID_00000094605069636550799770000006615813418787309474_);" width="0.9" height="5.8"/>
	
		<linearGradient id="SVGID_00000123431355763032891100000011904470458640044931_" gradientUnits="userSpaceOnUse" x1="45.1522" y1="154.989" x2="49.5214" y2="154.989">
		<stop  offset="0" style="stop-color:#010101"/>
		<stop  offset="0.328" style="stop-color:#010101"/>
		<stop  offset="0.524" style="stop-color:#010101"/>
		<stop  offset="0.7298" style="stop-color:#010101"/>
		<stop  offset="1" style="stop-color:#010101"/>
	</linearGradient>
	<polygon style="fill:url(#SVGID_00000123431355763032891100000011904470458640044931_);" points="48.6,156.2 48.6,156.2 46,152.1 
		45.2,152.1 45.2,157.9 46,157.9 46,153.8 46.1,153.8 48.7,157.9 49.5,157.9 49.5,152.1 48.6,152.1 	"/>
	
		<linearGradient id="SVGID_00000002355237813660976110000002526421075119228064_" gradientUnits="userSpaceOnUse" x1="55.6639" y1="154.989" x2="59.3853" y2="154.989">
		<stop  offset="0" style="stop-color:#010101"/>
		<stop  offset="0.328" style="stop-color:#010101"/>
		<stop  offset="0.524" style="stop-color:#010101"/>
		<stop  offset="0.7298" style="stop-color:#010101"/>
		<stop  offset="1" style="stop-color:#010101"/>
	</linearGradient>
	<polygon style="fill:url(#SVGID_00000002355237813660976110000002526421075119228064_);" points="59.4,152.9 59.4,152.1 
		55.7,152.1 55.7,157.9 59.4,157.9 59.4,157.1 56.5,157.1 56.5,155.4 59,155.4 59,154.6 56.5,154.6 56.5,152.9 	"/>
	
		<linearGradient id="SVGID_00000181067693694911544110000012687214608323646108_" gradientUnits="userSpaceOnUse" x1="71.8031" y1="154.9889" x2="75.964" y2="154.9889">
		<stop  offset="0" style="stop-color:#010101"/>
		<stop  offset="0.328" style="stop-color:#010101"/>
		<stop  offset="0.524" style="stop-color:#010101"/>
		<stop  offset="0.7298" style="stop-color:#010101"/>
		<stop  offset="1" style="stop-color:#010101"/>
	</linearGradient>
	<path style="fill:url(#SVGID_00000181067693694911544110000012687214608323646108_);" d="M72.7,152.4c-0.3,0.2-0.5,0.5-0.7,0.7
		c-0.1,0.1-0.2,0.3-0.2,0.6c0,0.2-0.1,0.7-0.1,1.4c0,0.7,0,1.1,0.1,1.4c0,0.1,0,0.2,0.1,0.3c0,0.1,0.1,0.2,0.1,0.3
		c0.1,0.3,0.4,0.5,0.7,0.7c0.3,0.2,0.7,0.3,1.1,0.3c0.6,0,1.1-0.2,1.5-0.6c0.4-0.4,0.6-0.9,0.6-1.5v-1.2h-2.1v0.8h1.2v0.3
		c0,0.4-0.1,0.7-0.3,0.9c-0.2,0.2-0.5,0.4-0.9,0.4c-0.2,0-0.4,0-0.5-0.1c-0.2-0.1-0.3-0.2-0.4-0.3c-0.1-0.1-0.2-0.3-0.2-0.5
		c0-0.2-0.1-0.6-0.1-1.2c0-0.6,0-1,0.1-1.2c0-0.2,0.1-0.4,0.2-0.5c0.1-0.1,0.2-0.2,0.4-0.3c0.1-0.1,0.3-0.1,0.5-0.1
		c0.3,0,0.5,0.1,0.7,0.2c0.2,0.2,0.3,0.4,0.4,0.6h0.9c-0.1-0.5-0.3-0.9-0.7-1.2c-0.4-0.3-0.8-0.5-1.4-0.5
		C73.4,152,73,152.1,72.7,152.4z"/>
	
		<linearGradient id="SVGID_00000134966166332459182110000014416386870411924376_" gradientUnits="userSpaceOnUse" x1="81.7073" y1="154.9889" x2="85.8681" y2="154.9889">
		<stop  offset="0" style="stop-color:#010101"/>
		<stop  offset="0.328" style="stop-color:#010101"/>
		<stop  offset="0.524" style="stop-color:#010101"/>
		<stop  offset="0.7298" style="stop-color:#010101"/>
		<stop  offset="1" style="stop-color:#010101"/>
	</linearGradient>
	<path style="fill:url(#SVGID_00000134966166332459182110000014416386870411924376_);" d="M85.6,156.9c0.1-0.1,0.2-0.3,0.2-0.6
		c0-0.2,0.1-0.7,0.1-1.4c0-0.7,0-1.1-0.1-1.4c0-0.2-0.1-0.4-0.2-0.6c-0.1-0.3-0.4-0.5-0.7-0.7c-0.3-0.2-0.7-0.3-1.2-0.3
		c-0.5,0-0.8,0.1-1.1,0.3c-0.3,0.2-0.5,0.5-0.7,0.7c-0.1,0.1-0.2,0.3-0.2,0.6c0,0.2-0.1,0.7-0.1,1.4c0,0.7,0,1.1,0.1,1.4
		c0,0.1,0,0.2,0.1,0.3c0,0.1,0.1,0.2,0.1,0.3c0.1,0.3,0.4,0.5,0.7,0.7c0.3,0.2,0.7,0.3,1.1,0.3c0.5,0,0.8-0.1,1.2-0.3
		C85.3,157.4,85.5,157.2,85.6,156.9z M84.7,156.6c-0.1,0.1-0.2,0.2-0.4,0.3c-0.2,0.1-0.3,0.1-0.5,0.1c-0.2,0-0.4,0-0.5-0.1
		c-0.2-0.1-0.3-0.2-0.4-0.3c-0.1-0.1-0.2-0.3-0.2-0.5c0-0.2-0.1-0.6-0.1-1.2c0-0.6,0-1,0.1-1.2c0-0.2,0.1-0.4,0.2-0.5
		c0.1-0.1,0.2-0.2,0.4-0.3c0.1-0.1,0.3-0.1,0.5-0.1c0.2,0,0.4,0,0.5,0.1c0.1,0.1,0.3,0.2,0.4,0.3c0.1,0.1,0.2,0.3,0.2,0.5
		c0,0.2,0.1,0.6,0.1,1.2c0,0.6,0,1-0.1,1.2C84.9,156.4,84.8,156.5,84.7,156.6z"/>
	
		<linearGradient id="SVGID_00000052103425932185618250000012400534704763110067_" gradientUnits="userSpaceOnUse" x1="91.8113" y1="154.989" x2="95.5324" y2="154.989">
		<stop  offset="0" style="stop-color:#010101"/>
		<stop  offset="0.328" style="stop-color:#010101"/>
		<stop  offset="0.524" style="stop-color:#010101"/>
		<stop  offset="0.7298" style="stop-color:#010101"/>
		<stop  offset="1" style="stop-color:#010101"/>
	</linearGradient>
	<polygon style="fill:url(#SVGID_00000052103425932185618250000012400534704763110067_);" points="95.5,152.9 95.5,152.1 
		91.8,152.1 91.8,157.9 95.5,157.9 95.5,157.1 92.7,157.1 92.7,155.4 95.1,155.4 95.1,154.6 92.7,154.6 92.7,152.9 	"/>
	
		<linearGradient id="SVGID_00000114785935137953195180000000801718712968339595_" gradientUnits="userSpaceOnUse" x1="100.7684" y1="154.9889" x2="105.0412" y2="154.9889">
		<stop  offset="0" style="stop-color:#010101"/>
		<stop  offset="0.328" style="stop-color:#010101"/>
		<stop  offset="0.524" style="stop-color:#010101"/>
		<stop  offset="0.7298" style="stop-color:#010101"/>
		<stop  offset="1" style="stop-color:#010101"/>
	</linearGradient>
	<path style="fill:url(#SVGID_00000114785935137953195180000000801718712968339595_);" d="M103,157.1c-0.6,0-1.2-0.2-1.7-0.6
		l-0.6,0.7c0.6,0.5,1.4,0.8,2.2,0.8c1.3,0,2-0.6,2-1.7c0-0.4-0.1-0.8-0.4-1.1c-0.3-0.3-0.7-0.5-1.2-0.6c-0.3,0-0.5-0.1-0.7-0.1
		c-0.3-0.1-0.5-0.1-0.6-0.3c-0.1-0.1-0.2-0.3-0.2-0.5c0-0.3,0.1-0.5,0.3-0.6c0.2-0.1,0.4-0.2,0.7-0.2c0.5,0,1,0.2,1.4,0.4l0.5-0.7
		c-0.5-0.4-1.2-0.6-1.9-0.6c-0.6,0-1.1,0.2-1.4,0.5c-0.3,0.3-0.5,0.7-0.5,1.2c0,0.4,0.1,0.8,0.4,1.1c0.3,0.3,0.6,0.5,1.1,0.6
		c0.3,0,0.5,0.1,0.8,0.1c0.5,0.1,0.8,0.3,0.8,0.8C104.1,156.8,103.8,157.1,103,157.1z"/>
	
		<linearGradient id="SVGID_00000090267808510547432310000015037237861318835076_" gradientUnits="userSpaceOnUse" x1="117.7586" y1="154.989" x2="121.8318" y2="154.989">
		<stop  offset="0" style="stop-color:#010101"/>
		<stop  offset="0.328" style="stop-color:#010101"/>
		<stop  offset="0.524" style="stop-color:#010101"/>
		<stop  offset="0.7298" style="stop-color:#010101"/>
		<stop  offset="1" style="stop-color:#010101"/>
	</linearGradient>
	<polygon style="fill:url(#SVGID_00000090267808510547432310000015037237861318835076_);" points="121.8,157.9 121.8,152.1 
		120.9,152.1 120.9,154.6 118.6,154.6 118.6,152.1 117.8,152.1 117.8,157.9 118.6,157.9 118.6,155.4 120.9,155.4 120.9,157.9 	"/>
	
		<linearGradient id="SVGID_00000003067225595245274070000016173992958998101946_" gradientUnits="userSpaceOnUse" x1="127.9749" y1="154.989" x2="131.6959" y2="154.989">
		<stop  offset="0" style="stop-color:#010101"/>
		<stop  offset="0.328" style="stop-color:#010101"/>
		<stop  offset="0.524" style="stop-color:#010101"/>
		<stop  offset="0.7298" style="stop-color:#010101"/>
		<stop  offset="1" style="stop-color:#010101"/>
	</linearGradient>
	<polygon style="fill:url(#SVGID_00000003067225595245274070000016173992958998101946_);" points="131.7,152.9 131.7,152.1 
		128,152.1 128,157.9 131.7,157.9 131.7,157.1 128.9,157.1 128.9,155.4 131.3,155.4 131.3,154.6 128.9,154.6 128.9,152.9 	"/>
	
		<linearGradient id="SVGID_00000145738260108948799590000004939873925987920771_" gradientUnits="userSpaceOnUse" x1="137.4392" y1="154.989" x2="141.7042" y2="154.989">
		<stop  offset="0" style="stop-color:#010101"/>
		<stop  offset="0.328" style="stop-color:#010101"/>
		<stop  offset="0.524" style="stop-color:#010101"/>
		<stop  offset="0.7298" style="stop-color:#010101"/>
		<stop  offset="1" style="stop-color:#010101"/>
	</linearGradient>
	<path style="fill:url(#SVGID_00000145738260108948799590000004939873925987920771_);" d="M138.3,155.4h1.1l1.2,2.5h1.1l-1.4-2.6
		c0.7-0.3,1.1-0.8,1.1-1.6c0-0.5-0.2-1-0.6-1.2c-0.3-0.3-0.7-0.4-1.2-0.4h-2.3v5.8h0.9V155.4z M138.3,152.9h1.4
		c0.3,0,0.5,0.1,0.6,0.2c0.2,0.1,0.3,0.4,0.3,0.7c0,0.3-0.1,0.5-0.2,0.6c-0.2,0.2-0.4,0.3-0.7,0.3h-1.3V152.9z"/>
	
		<linearGradient id="SVGID_00000047746932380246889810000006814865468336063904_" gradientUnits="userSpaceOnUse" x1="147.3433" y1="154.989" x2="151.0644" y2="154.989">
		<stop  offset="0" style="stop-color:#010101"/>
		<stop  offset="0.328" style="stop-color:#010101"/>
		<stop  offset="0.524" style="stop-color:#010101"/>
		<stop  offset="0.7298" style="stop-color:#010101"/>
		<stop  offset="1" style="stop-color:#010101"/>
	</linearGradient>
	<polygon style="fill:url(#SVGID_00000047746932380246889810000006814865468336063904_);" points="151.1,152.9 151.1,152.1 
		147.3,152.1 147.3,157.9 151.1,157.9 151.1,157.1 148.2,157.1 148.2,155.4 150.6,155.4 150.6,154.6 148.2,154.6 148.2,152.9 	"/>
	
		<linearGradient id="SVGID_00000000902619309304323100000013546386415871026609_" gradientUnits="userSpaceOnUse" x1="18.5391" y1="49.0295" x2="115.4722" y2="49.0295">
		<stop  offset="0" style="stop-color:#010101"/>
		<stop  offset="0.328" style="stop-color:#010101"/>
		<stop  offset="0.524" style="stop-color:#010101"/>
		<stop  offset="0.7298" style="stop-color:#010101"/>
		<stop  offset="1" style="stop-color:#010101"/>
	</linearGradient>
	<path style="fill:url(#SVGID_00000000902619309304323100000013546386415871026609_);" d="M19.2,48.3L19.2,48.3l0,0.1
		c0,0.1,0,0.2,0,0.3v0l0,0l0,0c0,0,0,0,0,0.1c0,0.1,0,0.1,0,0.2l0,0.2l0,0l0,0l0,0l0,0l0,0l0,0l0,0l0,0l0,0l0,0c0,0.2,0,0.4-0.1,0.6
		c0,0.2,0,0.3-0.1,0.5c0,0.1,0,0.1,0,0.2v0l0,0l0,0c0,0.2,0,0.4-0.1,0.6c0,0.2,0,0.3,0,0.5v0l0,0.2c0,0.1,0,0.1,0,0.2
		c0,0.1,0,0.1,0,0.2c0,0,0,0.1,0,0.1c0,0,0,0.1,0,0.1c0,0.1,0,0.1,0,0.2c0,0,0,0.1,0,0.1c0,0.2,0,0.4,0,0.7l0,0l0,0v0
		c0,0.1,0,0.2,0,0.3c0,0.1,0,0.2,0,0.3l0,0l0,0v0v0c0,0,0,0,0,0c0,0,0,0,0,0.1v0v0l0,0l0,0c0,0.1,0,0.3,0,0.4c0,0.1,0,0.1,0,0.2
		c0,0.2,0,0.5,0,0.7c0,0,0,0.1,0,0.1v0.1c0,0.2,0,0.4,0,0.5l0,0.1l0,0v0v0.2c0,0.1,0,0.1,0,0.2c0,0,0,0.1,0,0.1c0,0,0,0.1,0,0.1
		c0,0.1,0,0.1,0,0.2v0.2l0,0.2c0.2,10.8,4.5,21,12.2,28.6c7.7,7.6,18,11.8,28.8,11.8c1.7,0,3.4-0.1,5.1-0.3c0.8-0.1,1.5-0.2,2.3-0.3
		c0,0,0,0,0,0C61.4,94,56.5,89.4,52.7,84c-1.4-2-2.6-4.1-3.7-6.2c-0.2-0.5-0.5-1-0.7-1.5c0-0.1-0.1-0.1-0.1-0.2
		c-2.7-6-4-12.5-4-19.2c0-9.7,2.9-19,8.5-27c1.3-1.8,2.7-3.5,4.2-5.2c4.9-5.2,10.8-9.3,17.5-11.9c2-0.8,4.1-1.4,6.2-1.9
		c3.5-0.8,7.1-1.2,10.8-1.2c8.6,0,16.8,2.3,24,6.5c0,0,0,0,0,0c0,0,0,0,0,0c-0.1-0.1-0.1-0.1-0.2-0.2c-0.1-0.1-0.2-0.2-0.3-0.3
		c0,0-0.1-0.1-0.1-0.1l0,0l0,0l0,0l0,0c-0.1-0.1-0.2-0.2-0.2-0.2c-0.1-0.1-0.2-0.2-0.3-0.2l0,0l0,0l0,0c0,0,0,0,0,0
		c-0.1-0.1-0.2-0.2-0.3-0.3l0,0l-0.1-0.1c0,0,0,0-0.1-0.1c-0.1-0.1-0.3-0.3-0.4-0.4c-0.2-0.1-0.3-0.3-0.5-0.4
		c-0.1,0-0.1-0.1-0.2-0.1c-0.1-0.1-0.2-0.2-0.3-0.3l-0.2-0.2l-0.1-0.1l0,0l-0.1-0.1l0,0c-0.1-0.1-0.3-0.2-0.4-0.3l0,0l0,0l0,0l0,0
		c-0.1-0.1-0.2-0.2-0.3-0.2l0,0l0,0l0,0l0,0c-0.3-0.2-0.6-0.5-1-0.7l0,0l0,0c-0.1-0.1-0.2-0.1-0.3-0.2l-0.1-0.1l-0.1,0c0,0,0,0,0,0
		c0,0,0,0,0,0l0,0l0,0l0,0l0,0l-0.2-0.1l-0.1,0l-0.2-0.2c0,0-0.1,0-0.1-0.1c0,0-0.1-0.1-0.1-0.1l-0.1-0.1l0,0l0,0l0,0l0,0
		c-0.1-0.1-0.2-0.1-0.3-0.2c0,0,0,0-0.1,0l0,0l0,0c-0.2-0.2-0.5-0.3-0.7-0.5l0,0l0,0l0,0c-0.1-0.1-0.2-0.1-0.3-0.2
		c0,0-0.1,0-0.1-0.1l0,0l0,0c-0.2-0.1-0.3-0.2-0.5-0.3c0,0,0,0,0,0l0,0l0,0l0,0c0,0-0.1,0-0.1-0.1c-0.1-0.1-0.2-0.2-0.3-0.2l0,0l0,0
		l0,0c-0.2-0.1-0.3-0.2-0.5-0.3l0,0l0,0l0,0c-0.2-0.1-0.4-0.2-0.5-0.3l-0.3-0.2l0,0c0,0-0.1-0.1-0.1-0.1c-0.1,0-0.1-0.1-0.2-0.1l0,0
		l0,0l0,0l0,0c0,0-0.1,0-0.1-0.1c-0.1-0.1-0.3-0.2-0.4-0.2l-0.1-0.1c0,0-0.1-0.1-0.1-0.1c-0.1-0.1-0.2-0.1-0.4-0.2c0,0,0,0,0,0
		c-0.8-0.5-1.6-0.9-2.5-1.3c0,0,0,0-0.1,0l0,0l0,0l0,0c-0.2-0.1-0.4-0.2-0.6-0.3l-0.5-0.2l0,0c0,0,0,0,0,0c0,0,0,0,0,0l0,0l0,0l0,0
		c-0.6-0.3-1.1-0.5-1.6-0.7l0,0l0,0l0,0l0,0c-0.1-0.1-0.2-0.1-0.4-0.2l-0.1,0l0,0l0,0l0,0l-0.2-0.1c-0.1,0-0.2-0.1-0.2-0.1
		c0,0-0.1,0-0.1,0c-0.5-0.2-1-0.4-1.4-0.6l-0.2-0.1l0,0L95,3.4c-0.7-0.3-1.4-0.5-2.1-0.7l0,0l0,0c0,0,0,0,0,0
		c-0.1,0-0.3-0.1-0.4-0.1c-0.1,0-0.3-0.1-0.4-0.1c-0.1,0-0.2-0.1-0.3-0.1c-0.3-0.1-0.6-0.2-0.9-0.3l0,0l0,0l0,0l0,0c0,0-0.1,0-0.1,0
		c-0.1,0-0.1,0-0.2-0.1l0,0l-0.1,0c-0.6-0.2-1.2-0.3-1.8-0.4c-0.4-0.1-0.7-0.2-1.1-0.2c-0.6-0.1-1.2-0.3-1.8-0.4
		c-0.2,0-0.5-0.1-0.7-0.1l0,0h0h0c-0.2,0-0.5-0.1-0.7-0.1c-0.1,0-0.2,0-0.3,0c-0.1,0-0.3,0-0.4-0.1c-0.7-0.1-1.3-0.2-2-0.2
		C80.3,0.2,79,0.1,77.7,0c-0.7,0-1.4,0-2.1,0c-1.2,0-2.4,0-3.6,0.1c-0.1,0-0.3,0-0.4,0c-1.3,0.1-2.7,0.2-4,0.4
		c-0.2,0-0.5,0.1-0.7,0.1c0,0,0,0,0,0c0,0,0,0,0,0l0,0L19.2,48.3L19.2,48.3z"/>
	
		<linearGradient id="SVGID_00000051350566031813871400000014430227826289427335_" gradientUnits="userSpaceOnUse" x1="35.5909" y1="64.9556" x2="132.5237" y2="64.9556">
		<stop  offset="0" style="stop-color:#010101"/>
		<stop  offset="0.328" style="stop-color:#010101"/>
		<stop  offset="0.524" style="stop-color:#010101"/>
		<stop  offset="0.7298" style="stop-color:#010101"/>
		<stop  offset="1" style="stop-color:#010101"/>
	</linearGradient>
	<path style="fill:url(#SVGID_00000051350566031813871400000014430227826289427335_);" d="M131.9,65.6L131.9,65.6L131.9,65.6
		c0-0.2,0-0.3,0-0.3l0,0l0,0l0,0c0-0.1,0-0.2,0-0.3l0-0.1l0-0.1c0,0,0-0.1,0-0.1l0-0.4l0-0.2c0-0.2,0.1-0.5,0.1-0.7l0,0
		c0-0.2,0-0.4,0.1-0.6c0-0.2,0-0.3,0-0.5v0l0-0.2c0-0.1,0-0.2,0-0.3l0,0l0,0c0-0.1,0-0.3,0-0.4v0l0,0c0-0.2,0-0.4,0-0.7v0
		c0-0.2,0-0.4,0-0.7l0-0.1v-0.1l0-0.1c0-0.2,0-0.4,0-0.5c0-0.2,0-0.5,0-0.7l0,0v-0.1c0-0.2,0-0.3,0-0.5v-0.2l0,0c0-0.1,0-0.3,0-0.4
		c0-0.2,0-0.3,0-0.5v0l0-0.1c-0.2-10.8-4.5-21-12.2-28.6c-7.7-7.6-18-11.8-28.8-11.8c-2.5,0-5,0.2-7.4,0.7
		C89.7,20,94.5,24.5,98.3,30c5.5,7.9,8.5,17.3,8.5,27c0,9.7-2.9,19-8.5,27c-5.4,7.8-12.9,13.7-21.7,17.1c-5.4,2.1-11.2,3.2-17,3.2
		c-8.6,0-16.8-2.3-24-6.5l0,0l0,0l0,0c0,0,0.1,0.1,0.1,0.1l0.1,0.1c0.1,0.1,0.2,0.2,0.3,0.3l0,0l0,0c0.2,0.1,0.3,0.3,0.5,0.5l0,0
		l0,0c0.1,0.1,0.2,0.2,0.4,0.3l0,0l0,0c0.2,0.2,0.4,0.4,0.6,0.6l0,0l0,0c0.1,0.1,0.3,0.2,0.4,0.4l0,0l0.1,0.1l0,0l0.4,0.3l0.1,0.1
		l0,0c0.1,0.1,0.2,0.2,0.3,0.3l0,0l0,0c0.1,0.1,0.2,0.2,0.3,0.3l0,0l0,0c0.1,0.1,0.2,0.1,0.3,0.2l0,0l0,0c0.3,0.2,0.6,0.5,0.9,0.7
		c0.1,0.1,0.1,0.1,0.2,0.2c0.1,0.1,0.2,0.1,0.2,0.2c0,0,0.1,0.1,0.1,0.1l0.1,0.1c0.1,0.1,0.3,0.2,0.4,0.3l0.1,0.1
		c0.1,0,0.1,0.1,0.2,0.1l0,0l0,0c0.1,0.1,0.2,0.1,0.3,0.2l0.1,0.1c0.2,0.2,0.5,0.3,0.7,0.5l0,0l0,0c0.1,0.1,0.2,0.1,0.3,0.2l0.1,0.1
		l0.3,0.2l0.3,0.2c0.1,0.1,0.3,0.2,0.4,0.3c0.2,0.1,0.3,0.2,0.4,0.3h0.4l0.6,0.6c0.1,0.1,0.2,0.1,0.3,0.2c0.2,0.1,0.4,0.2,0.6,0.3
		l0,0l0,0c0.2,0.1,0.3,0.2,0.5,0.3c0.8,0.5,1.7,0.9,2.5,1.3c0.2,0.1,0.4,0.2,0.6,0.3c0,0,0.1,0,0.1,0c0.2,0.1,0.4,0.2,0.5,0.3
		c0.5,0.3,1.1,0.5,1.6,0.7l0,0l0,0c0.1,0.1,0.3,0.1,0.4,0.2c0,0,0.1,0,0.1,0.1c0.2,0.1,0.4,0.1,0.5,0.2c0.4,0.2,0.9,0.4,1.4,0.5l0,0
		l0,0c0.2,0.1,0.3,0.1,0.5,0.2l0,0l0,0c0.7,0.3,1.4,0.5,2.1,0.7l0,0l0,0c0.1,0,0.3,0.1,0.4,0.1l0,0l0,0c0.2,0.1,0.4,0.1,0.6,0.2
		l0.2,0.1c0.3,0.1,0.5,0.1,0.8,0.2c0.1,0,0.3,0.1,0.4,0.1l0,0c1.6,0.4,3.2,0.8,4.7,1.1l0,0l0,0c0.2,0,0.4,0.1,0.7,0.1h0l0,0
		c0.3,0,0.5,0.1,0.7,0.1l0,0l0,0c0.2,0,0.4,0.1,0.7,0.1l0,0c2.6,0.4,5.3,0.6,8,0.6c2.7,0,5.4-0.2,8-0.6l0.1,0c0.2,0,0.4-0.1,0.6-0.1
		l0,0l0,0L131.9,65.6C131.9,65.7,131.9,65.6,131.9,65.6z"/>
</g>
</svg>
