<?xml version="1.0" encoding="UTF-8"?>
<svg xmlns="http://www.w3.org/2000/svg" id="Layer_1" data-name="Layer 1" viewBox="0 0 24 24">
  <path d="m16,14.5v.5h-3v-.5c0-.276-.225-.5-.5-.5h-1c-.275,0-.5.224-.5.5,0,.294.177.555.45.665l2.214.886c1.419.567,2.336,1.922,2.336,3.45,0,1.58-1.059,2.903-2.5,3.337v1.163h-3v-1.163c-1.441-.434-2.5-1.757-2.5-3.337v-.5h3v.5c0,.276.225.5.5.5h1c.275,0,.5-.224.5-.5,0-.294-.177-.555-.45-.665l-2.214-.886c-1.419-.567-2.336-1.922-2.336-3.45,0-1.58,1.059-2.903,2.5-3.337v-1.163h3v1.163c1.441.434,2.5,1.757,2.5,3.337Zm-5.484-6.5h3v-3.979h2.484L12.843.371c-.443-.494-1.217-.494-1.66,0l-3.183,3.65h2.516v3.979Zm13.484,4.021l-3.157-3.65c-.443-.494-1.217-.494-1.66,0l-3.183,3.65h2.516v11.979h3v-11.979h2.484Zm-16-3l-3.157-3.65c-.443-.494-1.217-.494-1.66,0l-3.183,3.65h2.516v14.979h3v-14.979h2.484Z"/>
</svg>
