<svg xmlns="http://www.w3.org/2000/svg" viewBox="0 0 25 25" id="shipped">
    <path fill="#fff"
        d="M5.968,12.753V13.8l-3.63-1.21a.5.5,0,1,1,.32-.94Zm-1.55,1.98a.509.509,0,0,0-.63.32.491.491,0,0,0,.31.63l1.87.62v-1.05Zm4.909-10.6L17.04,6.755a.5.5,0,0,0,.322-.947L9.649,3.189a.5.5,0,1,0-.322.947ZM3.312,7.79A.5.5,0,1,0,3,8.739l1.8.6a.506.506,0,0,0,.158.025.5.5,0,0,0,.158-.975ZM2.33,6.137,8.076,8.052a.484.484,0,0,0,.158.026A.5.5,0,0,0,8.392,7.1L2.646,5.189a.5.5,0,1,0-.316.948ZM9.976,8.993,6.888,10.151l7.6,2.85,3.087-1.158ZM11.4,8.459l7.6,2.85,3.088-1.158-7.6-2.85ZM5.968,12.753l3.94,1.31a.5.5,0,0,1-.15.98.415.415,0,0,1-.16-.03L5.968,13.8v1.45l2.42.81a.5.5,0,0,1-.15.97.777.777,0,0,1-.16-.02l-2.11-.71v2.53l8.02,3v-7.95l-8.02-3.01Zm9.02,1.129v7.955l8.024-3.009V10.872Z"></path>
</svg>
