<?xml version="1.0" ?>
<!-- Uploaded to: SVG Repo, www.svgrepo.com, Generator: SVG Repo Mixer Tools -->
<svg width="800px" height="800px" viewBox="0 0 120 120" id="Layer_1" version="1.1" xml:space="preserve" xmlns="http://www.w3.org/2000/svg" xmlns:xlink="http://www.w3.org/1999/xlink">
<style type="text/css">
	.st0{fill:#F8A100;}
	.st1{opacity:0.1;}
	.st2{opacity:0.15;}
	.st3{fill:#F4C70C;}
</style>
<g>
<path class="st0" d="M99.9,50.6h1.3c2.2,0,4-1.8,4-4v-6.3c0-2.2-1.8-4-4-4H18.9c-2.2,0-4,1.8-4,4v6.3c0,2.2,1.8,4,4,4h1.3   c2.2,0,4,1.8,4,4v10.9c0,2.2-1.8,4-4,4h-1.3c-2.2,0-4,1.8-4,4v6.3c0,2.2,1.8,4,4,4h82.3c2.2,0,4-1.8,4-4v-6.3c0-2.2-1.8-4-4-4h-1.3   c-2.2,0-4-1.8-4-4V54.6C95.9,52.4,97.7,50.6,99.9,50.6z M36.1,76.9c0,0.6-0.4,1-1,1s-1-0.4-1-1v-5.4c0-0.6,0.4-1,1-1s1,0.4,1,1   V76.9z M36.1,67.4c0,0.6-0.4,1-1,1s-1-0.4-1-1v-5.4c0-0.6,0.4-1,1-1s1,0.4,1,1V67.4z M36.1,57.9c0,0.6-0.4,1-1,1s-1-0.4-1-1v-5.4   c0-0.6,0.4-1,1-1s1,0.4,1,1V57.9z M36.1,48.5c0,0.6-0.4,1-1,1s-1-0.4-1-1v-5.4c0-0.6,0.4-1,1-1s1,0.4,1,1V48.5z M85.9,76.9   c0,0.6-0.4,1-1,1s-1-0.4-1-1v-5.4c0-0.6,0.4-1,1-1s1,0.4,1,1V76.9z M85.9,67.4c0,0.6-0.4,1-1,1s-1-0.4-1-1v-5.4c0-0.6,0.4-1,1-1   s1,0.4,1,1V67.4z M85.9,57.9c0,0.6-0.4,1-1,1s-1-0.4-1-1v-5.4c0-0.6,0.4-1,1-1s1,0.4,1,1V57.9z M85.9,48.5c0,0.6-0.4,1-1,1   s-1-0.4-1-1v-5.4c0-0.6,0.4-1,1-1s1,0.4,1,1V48.5z"/>
<g class="st1">
<path d="M102.7,82.8H20.4c-2.2,0-4-1.8-4-4v-6.3c0-1.2,0.5-2.2,1.4-3c-1.7,0.4-2.9,2-2.9,3.8v6.3c0,2.2,1.8,4,4,4h82.3    c1,0,1.9-0.4,2.6-1C103.4,82.7,103.1,82.8,102.7,82.8z"/>
<path d="M18.9,50.6h1.3c2.2,0,4,1.8,4,4v10.9c0,1.2-0.5,2.2-1.4,3c1.7-0.4,2.9-2,2.9-3.8V53.7c0-2.2-1.8-4-4-4h-1.3    c-2.2,0-4-1.8-4-4v-6.3c0-1.2,0.5-2.2,1.4-3c-1.7,0.4-2.9,2-2.9,3.8v6.3C14.9,48.8,16.7,50.6,18.9,50.6z"/>
</g>
<g>
<g class="st2">
<path d="M49.5,61.4c-1.4,0-2.6-0.3-3.7-0.9c-1.1-0.6-2-1.5-2.6-2.6c-0.7-1.1-1-2.5-1-4.1c0-1.6,0.3-2.9,1-4.1     c0.7-1.1,1.5-2,2.6-2.6c1.1-0.6,2.3-0.9,3.7-0.9c1.4,0,2.6,0.3,3.7,0.9c1.1,0.6,2,1.5,2.6,2.6c0.7,1.1,1,2.5,1,4.1s-0.3,3-1,4.1     c-0.7,1.2-1.5,2-2.6,2.6C52.2,61.1,50.9,61.4,49.5,61.4z M47,73.8l18.5-27.1H72L53.5,73.8H47z M49.5,57.3c0.4,0,0.8-0.2,1.2-0.7     c0.4-0.5,0.5-1.4,0.5-2.6c0-1.3-0.1-2.2-0.5-2.6c-0.4-0.5-0.7-0.7-1.2-0.7c-0.4,0-0.8,0.2-1.2,0.7c-0.4,0.5-0.5,1.4-0.5,2.6     c0,1.3,0.1,2.2,0.5,2.6C48.7,57,49.2,57.3,49.5,57.3z M69.4,74.2c-1.4,0-2.6-0.3-3.7-0.9c-1.1-0.6-2-1.5-2.6-2.6     c-0.7-1.1-1-2.5-1-4.1c0-1.6,0.3-2.9,1-4.1c0.7-1.1,1.5-2,2.6-2.6c1.1-0.6,2.3-0.9,3.7-0.9c1.3,0,2.6,0.3,3.7,0.9     c1.1,0.6,2,1.5,2.6,2.6c0.7,1.1,1,2.5,1,4.1c0,1.6-0.3,3-1,4.1c-0.7,1.2-1.5,2-2.6,2.6C72,73.9,70.8,74.2,69.4,74.2z M69.4,70.1     c0.4,0,0.8-0.2,1.2-0.7c0.4-0.5,0.5-1.4,0.5-2.6c0-1.3-0.1-2.2-0.5-2.6c-0.4-0.5-0.7-0.7-1.2-0.7c-0.4,0-0.8,0.2-1.2,0.7     c-0.4,0.5-0.5,1.4-0.5,2.6c0,1.3,0.1,2.2,0.5,2.6C68.6,69.8,69,70.1,69.4,70.1z"/>
</g>
<g>
<path class="st3" d="M50.6,60.8c-1.4,0-2.6-0.3-3.7-0.9c-1.1-0.6-2-1.5-2.6-2.6c-0.7-1.2-1-2.5-1-4.1s0.3-2.9,1-4.1     c0.7-1.1,1.5-2,2.6-2.6c1.1-0.6,2.3-0.9,3.7-0.9c1.4,0,2.6,0.3,3.7,0.9c1.1,0.6,2,1.5,2.6,2.6c0.7,1.1,1,2.5,1,4.1     c0,1.6-0.3,3-1,4.1c-0.7,1.2-1.5,2-2.6,2.6C53.2,60.5,52,60.8,50.6,60.8z M48.1,73.2l18.5-27.1h6.5L54.6,73.2H48.1z M50.6,56.7     c0.4,0,0.8-0.2,1.2-0.7c0.4-0.5,0.5-1.4,0.5-2.6c0-1.3-0.1-2.2-0.5-2.6c-0.4-0.5-0.7-0.7-1.2-0.7c-0.4,0-0.8,0.2-1.2,0.7     s-0.5,1.4-0.5,2.6c0,1.3,0.1,2.2,0.5,2.6C49.8,56.4,50.2,56.7,50.6,56.7z M70.5,73.6c-1.4,0-2.6-0.3-3.7-0.9     c-1.1-0.6-2-1.5-2.6-2.6c-0.7-1.1-1-2.5-1-4.1c0-1.6,0.3-2.9,1-4.1c0.7-1.1,1.5-2,2.6-2.6c1.1-0.6,2.3-0.9,3.7-0.9     c1.3,0,2.6,0.3,3.7,0.9c1.1,0.6,2,1.5,2.6,2.6c0.7,1.1,1,2.5,1,4.1c0,1.6-0.3,3-1,4.1c-0.7,1.2-1.5,2-2.6,2.6     C73,73.3,71.9,73.6,70.5,73.6z M70.5,69.4c0.4,0,0.8-0.2,1.2-0.7s0.5-1.4,0.5-2.6c0-1.3-0.1-2.2-0.5-2.6     c-0.4-0.5-0.7-0.7-1.2-0.7c-0.4,0-0.8,0.2-1.2,0.7s-0.5,1.4-0.5,2.6c0,1.3,0.1,2.2,0.5,2.6C69.7,69.2,70,69.4,70.5,69.4z"/>
</g>
</g>
</g>
</svg>