<?xml version="1.0" ?>

<!DOCTYPE svg  PUBLIC '-//W3C//DTD SVG 1.1//EN'  'http://www.w3.org/Graphics/SVG/1.1/DTD/svg11.dtd'>

<!-- Uploaded to: SVG Repo, www.svgrepo.com, Generator: SVG Repo Mixer Tools -->
<svg fill="#000000" width="800px" height="800px" viewBox="0 0 1069 1069" style="fill-rule:evenodd;clip-rule:evenodd;stroke-linejoin:round;stroke-miterlimit:2;" version="1.1" xml:space="preserve" xmlns="http://www.w3.org/2000/svg" xmlns:serif="http://www.serif.com/" xmlns:xlink="http://www.w3.org/1999/xlink">

<rect height="1066.67" id="Monitor" style="fill:none;" width="1066.67" x="1.447" y="0.143"/>

<g>

<path d="M368.113,981.393l333.334,-0c17.247,-0 31.25,-14.003 31.25,-31.25c-0,-17.248 -14.003,-31.25 -31.25,-31.25l-333.334,-0c-17.247,-0 -31.25,14.002 -31.25,31.25c0,17.247 14.003,31.25 31.25,31.25Zm-250,-333.334l750,0c17.248,0 31.25,-14.002 31.25,-31.25c0,-17.247 -14.002,-31.25 -31.25,-31.25l-750,0c-17.247,0 -31.25,14.003 -31.25,31.25c0,17.248 14.003,31.25 31.25,31.25Z" style="fill-opacity:0.5;"/>

<path d="M982.697,325.142c-0.001,-109.306 -88.611,-197.916 -197.917,-197.916c-145.234,0 -354.765,0 -500,0c-109.306,0 -197.916,88.61 -197.917,197.916c0,101.803 0,231.532 0,333.335c0.001,109.306 88.611,197.916 197.917,197.916c145.235,-0 354.766,-0 500,-0c109.306,-0 197.916,-88.61 197.917,-197.916l-0,-333.335Zm-62.5,-0.001l-0,333.335c-0.001,74.79 -60.629,135.417 -135.417,135.417c-145.234,-0 -354.765,-0 -500,-0c-74.788,-0 -135.415,-60.627 -135.417,-135.415c0,-0.003 0,-333.335 0,-333.335c0.002,-74.79 60.629,-135.417 135.417,-135.417c145.235,0 354.766,0 500,0c74.788,0 135.416,60.627 135.417,135.415Zm-385.417,360.939c18.254,-0 33.073,14.819 33.073,33.073c0,18.254 -14.819,33.073 -33.073,33.073c-18.254,0 -33.073,-14.819 -33.073,-33.073c-0,-18.254 14.819,-33.073 33.073,-33.073Z"/>

</g>

</svg>