<svg id="Layer_1" data-name="Layer 1" xmlns="http://www.w3.org/2000/svg" viewBox="0 0 122.89 94.06"><defs><style>.cls-1{fill-rule:evenodd;}</style></defs><title>gaming-pc</title><path class="cls-1" d="M3.12,0H104.28a3.13,3.13,0,0,1,3.13,3.12v8h-6.63V8.64A2.76,2.76,0,0,0,98,5.88H9.4A2.76,2.76,0,0,0,6.64,8.64V61.19A2.77,2.77,0,0,0,9.4,64H77.31V77H3.12A3.13,3.13,0,0,1,0,73.87V3.12A3.12,3.12,0,0,1,3.12,0Zm65,23.6h.11A1,1,0,0,1,69,24c4.48,4.6,6.83,14.61,6.3,21.31A13.27,13.27,0,0,1,74.15,50a4.23,4.23,0,0,1-3,2.58c-1.68.31-3.79-.58-6.31-3.15l-1-1a29.49,29.49,0,0,1-3.47-3.85H42a28.35,28.35,0,0,1-3.47,3.86l-1,1C35,52,32.94,52.88,31.26,52.57a4.21,4.21,0,0,1-3-2.58,13.26,13.26,0,0,1-1.12-4.72c-.52-6.73,1.86-16.8,6.37-21.38a1,1,0,0,1,.7-.29h.11a7.49,7.49,0,0,1,11.82,0h3.1c-.24-5.86,1.39-7.33,3.8-7.5a12.85,12.85,0,0,1,2.76.26c1.82.3,3.84.64,5.27-.8a1,1,0,0,1,1.39,0,1,1,0,0,1,0,1.39c-2.14,2.15-4.68,1.73-7,1.35a10.66,10.66,0,0,0-2.31-.24c-1.3.09-2.17,1.17-2,5.55h5.05a7.48,7.48,0,0,1,11.81,0ZM42.48,29.8v2.61h2.61a2.24,2.24,0,0,1,0,4.48H42.48V39.5a2.24,2.24,0,0,1-4.48,0V36.89H35.39a2.24,2.24,0,0,1,0-4.48H38V29.8a2.24,2.24,0,0,1,4.48,0Zm20.45-2.28a2.06,2.06,0,1,1-2.92,0,2.06,2.06,0,0,1,2.92,0Zm0,9a2.06,2.06,0,1,1-2.92,0,2.08,2.08,0,0,1,2.92,0Zm4.95-4.7a2.06,2.06,0,1,1-2.92,0,2.06,2.06,0,0,1,2.92,0Zm-9.91,0a2.06,2.06,0,1,1-2.92,0,2.06,2.06,0,0,1,2.92,0ZM90.52,21.33H119a3.92,3.92,0,0,1,3.91,3.91v63.2A3.92,3.92,0,0,1,119,92.35H90.52a3.92,3.92,0,0,1-3.91-3.91V25.23a3.92,3.92,0,0,1,3.91-3.9ZM114.35,37.5h2.83v1.62h-2.83V37.5Zm-9.61,38.67a4.25,4.25,0,1,1-4.25,4.25,4.25,4.25,0,0,1,4.25-4.25ZM91.9,33.8h25.69a.81.81,0,0,1,.81.81V39a.81.81,0,0,1-.81.81H91.9a.81.81,0,0,1-.81-.81V34.61a.81.81,0,0,1,.81-.81Zm-24,47.51c.07,4.9,2.1,9.3,7.57,12.75H33.22c4.38-3.17,6.33-7,6.31-12.75ZM53.71,66.47a4,4,0,1,1-4,4,4,4,0,0,1,4-4Z"/></svg>