<?xml version="1.0" ?>
<!DOCTYPE svg  PUBLIC '-//W3C//DTD SVG 1.1//EN'  'http://www.w3.org/Graphics/SVG/1.1/DTD/svg11.dtd'>
<!-- Uploaded to: SVG Repo, www.svgrepo.com, Generator: SVG Repo Mixer Tools -->
<svg fill="#000000" width="800px" height="800px" viewBox="0 0 64 64" enable-background="new 0 0 64 64" version="1.1" xml:space="preserve" xmlns="http://www.w3.org/2000/svg" xmlns:xlink="http://www.w3.org/1999/xlink">
<g id="_x31_-smartphone"/>
<g id="_x32_-smartTV"/>
<g id="_x33_-telepon"/>
<g id="_x34_-computer"/>
<g id="_x35_-kalkulator"/>
<g id="_x36_-radio"/>
<g id="_x37_-hadset"/>
<g id="_x38_-usbflashdisk"/>
<g id="_x39_-camera"/>
<g id="_x31_0-printer"/>
<g id="_x31_1-powerbank">
<g>
<polygon points="28.628,55.51 30.372,56.49 40.482,38.517 27.942,41.41 38.3,27.6 36.7,26.4 23.058,44.59 36.518,41.483   "/>
<path d="M49,25h-6v6h6V25z M47,29h-2v-2h2V29z"/>
<path d="M49,34h-6v6h6V34z M47,38h-2v-2h2V38z"/>
<path d="M49,43h-6v6h6V43z M47,47h-2v-2h2V47z"/>
<path d="M52.762,3H41.238C37.798,3,35,6.112,35,9.938v3.285h-4V19H17c-3.309,0-6,2.691-6,6v30c0,3.309,2.691,6,6,6h30    c3.309,0,6-2.691,6-6V25c0-3.309-2.691-6-6-6h-5v-5.778h-5V9.938C37,7.215,38.901,5,41.238,5h11.523C55.099,5,57,7.215,57,9.938    V61h2V9.938C59,6.112,56.202,3,52.762,3z M51,25v30c0,2.206-1.794,4-4,4H17c-2.206,0-4-1.794-4-4V25c0-2.206,1.794-4,4-4h30    C49.206,21,51,22.794,51,25z M40,19h-7v-3.778h7V19z"/>
</g>
</g>
<g id="_x31_2-kulkas"/>
<g id="_x31_3-modem"/>
<g id="_x31_4-tablet"/>
<g id="_x31_5-gamebot"/>
<g id="_x31_6-wasing_machine"/>
<g id="_x31_7-handdryer"/>
<g id="_x31_8-blender"/>
<g id="_x31_9-controller"/>
<g id="_x32_0-michrophone"/>
<g id="_x32_1-lamp"/>
</svg>