<?xml version="1.0" encoding="iso-8859-1"?>
<!-- Uploaded to: SVG Repo, www.svgrepo.com, Generator: SVG Repo Mixer Tools -->
<svg fill="#000000" height="800px" width="800px" version="1.1" id="Layer_1" xmlns="http://www.w3.org/2000/svg" xmlns:xlink="http://www.w3.org/1999/xlink" 
	 viewBox="0 0 512 512" xml:space="preserve">
<g>
	<g>
		<path d="M436.021,190.96h-2.054v-34.663c0-21.642-17.606-39.249-39.249-39.249h-14.142V62.289c0-7.561-6.13-13.69-13.69-13.69
			H145.112c-7.561,0-13.69,6.129-13.69,13.69v54.759h-14.142c-21.642,0-39.249,17.607-39.249,39.249v34.663h-2.053
			C34.084,190.96,0,225.05,0,266.952v156.749c0,7.561,6.129,13.69,13.69,13.69h36.963v12.321c0,7.561,6.129,13.69,13.69,13.69
			c7.561,0,13.69-6.129,13.69-13.69V437.39h343.615v12.321c0,7.561,6.13,13.69,13.69,13.69c7.56,0,13.69-6.129,13.69-13.69V437.39
			h49.283c7.56,0,13.69-6.129,13.69-13.69V266.952C512,225.05,477.916,190.96,436.021,190.96z M380.578,144.428h14.142
			c6.544,0,11.869,5.324,11.869,11.869v34.663h-26.011V144.428z M105.412,156.297c0-6.545,5.324-11.869,11.869-11.869h14.142v46.532
			h-26.011V156.297z M368.257,409.066H143.743v-33.54h224.513V409.066z M484.62,410.011h-88.984v-48.174
			c0-7.561-6.13-13.69-13.69-13.69H130.053c-7.561,0-13.69,6.129-13.69,13.69v48.174H27.38V266.952
			c0-26.805,21.801-48.613,48.599-48.613h15.743h53.39h123.437c7.56,0,13.69-6.129,13.69-13.69c0-7.561-6.13-13.69-13.69-13.69
			H158.802V75.979h194.396V190.96h-4.791c-7.56,0-13.69,6.129-13.69,13.69c0,7.561,6.13,13.69,13.69,13.69h18.481h53.39h15.743
			c26.798,0,48.599,21.808,48.599,48.613V410.011z"/>
	</g>
</g>
<g>
	<g>
		<path d="M308.935,190.96h-3.195c-7.56,0-13.69,6.129-13.69,13.69c0,7.561,6.13,13.69,13.69,13.69h3.195
			c7.56,0,13.69-6.129,13.69-13.69C322.624,197.089,316.494,190.96,308.935,190.96z"/>
	</g>
</g>
<g>
	<g>
		<path d="M335.867,241.886H176.147c-7.561,0-13.69,6.129-13.69,13.69v54.499c0,7.561,6.129,13.69,13.69,13.69h159.719
			c7.56,0,13.69-6.129,13.69-13.69v-54.499C349.556,248.015,343.426,241.886,335.867,241.886z M322.177,296.385h-132.34v-27.12
			h132.34V296.385z"/>
	</g>
</g>
<g>
	<g>
		<path d="M402.481,249.84h-20.535c-7.56,0-13.69,6.129-13.69,13.69s6.13,13.69,13.69,13.69h20.535c7.56,0,13.69-6.129,13.69-13.69
			S410.041,249.84,402.481,249.84z"/>
	</g>
</g>
<g>
	<g>
		<path d="M402.481,288.431h-20.535c-7.56,0-13.69,6.129-13.69,13.69c0,7.561,6.13,13.69,13.69,13.69h20.535
			c7.56,0,13.69-6.129,13.69-13.69C416.171,294.56,410.041,288.431,402.481,288.431z"/>
	</g>
</g>
<g>
	<g>
		<path d="M130.053,249.84h-20.535c-7.561,0-13.69,6.129-13.69,13.69s6.129,13.69,13.69,13.69h20.535
			c7.561,0,13.69-6.129,13.69-13.69S137.614,249.84,130.053,249.84z"/>
	</g>
</g>
<g>
	<g>
		<path d="M130.053,288.431h-20.535c-7.561,0-13.69,6.129-13.69,13.69c0,7.561,6.129,13.69,13.69,13.69h20.535
			c7.561,0,13.69-6.129,13.69-13.69C143.743,294.56,137.614,288.431,130.053,288.431z"/>
	</g>
</g>
</svg>