<?xml version="1.0" encoding="iso-8859-1"?>
<!-- Uploaded to: SVG Repo, www.svgrepo.com, Generator: SVG Repo Mixer Tools -->
<svg fill="#000000" height="800px" width="800px" version="1.1" id="Capa_1" xmlns="http://www.w3.org/2000/svg" xmlns:xlink="http://www.w3.org/1999/xlink" 
	 viewBox="0 0 60 60" xml:space="preserve">
<g>
	<g>
		<path d="M59.25,23.689c-0.014-0.042-0.025-0.082-0.044-0.12C57.388,18.579,52.61,15,47,15H13C5.832,15,0,20.832,0,28
			c0,6.83,5.299,12.436,12,12.949v1.287C12,43.76,13.24,45,14.764,45h2.473C18.76,45,20,43.76,20,42.236V41h21v1.236
			C41,43.76,42.24,45,43.764,45h2.473C47.76,45,49,43.76,49,42.236V40.83c4.726-0.735,8.609-4.015,10.206-8.398
			c0.019-0.039,0.03-0.079,0.044-0.12C59.727,30.96,60,29.513,60,28S59.727,25.04,59.25,23.689z M18,42.236
			C18,42.657,17.657,43,17.236,43h-2.473C14.343,43,14,42.657,14,42.236V41h4V42.236z M20,39h-7c-4.264,0-7.961-2.444-9.786-6H9
			c0.552,0,1-0.447,1-1s-0.448-1-1-1H2.426c-0.183-0.646-0.313-1.313-0.376-2H9c0.552,0,1-0.447,1-1s-0.448-1-1-1H2.051
			c0.062-0.688,0.192-1.354,0.376-2H9c0.552,0,1-0.447,1-1s-0.448-1-1-1H3.214c1.825-3.556,5.521-6,9.786-6h10.104
			C19.444,19.303,17,23.367,17,28s2.444,8.697,6.104,11H20z M19,28c0-6.065,4.935-11,11-11s11,4.935,11,11s-4.935,11-11,11
			S19,34.065,19,28z M47,42.236C47,42.657,46.657,43,46.236,43h-2.473C43.343,43,43,42.657,43,42.236V41h4V42.236z M51,29h6.949
			c-0.062,0.688-0.192,1.354-0.376,2H51c-0.552,0-1,0.447-1,1c0,0.553,0.448,1,1,1h5.786c-1.825,3.556-5.521,6-9.786,6h-6h-4.104
			C40.556,36.697,43,32.633,43,28s-2.444-8.697-6.104-11H47c4.264,0,7.961,2.444,9.786,6H51c-0.552,0-1,0.447-1,1s0.448,1,1,1h6.574
			c0.183,0.646,0.313,1.313,0.376,2H51c-0.552,0-1,0.447-1,1S50.448,29,51,29z"/>
		<path d="M30,19c-4.962,0-9,4.037-9,9s4.038,9,9,9s9-4.037,9-9S34.962,19,30,19z M30,35c-3.86,0-7-3.141-7-7s3.14-7,7-7
			s7,3.141,7,7S33.86,35,30,35z"/>
		<path d="M27,26c0.26,0,0.52-0.11,0.71-0.29C27.89,25.52,28,25.26,28,25s-0.11-0.521-0.29-0.71c-0.37-0.37-1.04-0.37-1.42,0
			C26.11,24.479,26,24.74,26,25s0.11,0.52,0.29,0.71C26.48,25.89,26.74,26,27,26z"/>
		<path d="M34.707,27.293c-0.391-0.391-1.023-0.391-1.414,0l-4,4c-0.391,0.391-0.391,1.023,0,1.414C29.488,32.902,29.744,33,30,33
			s0.512-0.098,0.707-0.293l4-4C35.098,28.316,35.098,27.684,34.707,27.293z"/>
		<path d="M33.707,23.293c-0.391-0.391-1.023-0.391-1.414,0l-7,7c-0.391,0.391-0.391,1.023,0,1.414C25.488,31.902,25.744,32,26,32
			s0.512-0.098,0.707-0.293l7-7C34.098,24.316,34.098,23.684,33.707,23.293z"/>
	</g>
</g>
</svg>