<?xml version="1.0" encoding="iso-8859-1"?>
<!-- Uploaded to: SVG Repo, www.svgrepo.com, Generator: SVG Repo Mixer Tools -->
<!DOCTYPE svg PUBLIC "-//W3C//DTD SVG 1.1//EN" "http://www.w3.org/Graphics/SVG/1.1/DTD/svg11.dtd">
<svg fill="#000000" height="800px" width="800px" version="1.1" id="Capa_1" xmlns="http://www.w3.org/2000/svg" xmlns:xlink="http://www.w3.org/1999/xlink" 
	 viewBox="0 0 54.616 54.616" xml:space="preserve">
<path id="XMLID_59_" d="M37.213,36.533c0,5.461-4.443,9.905-9.905,9.905c-5.461,0-9.904-4.443-9.904-9.905s4.443-9.905,9.904-9.905
	C32.77,26.628,37.213,31.071,37.213,36.533z M27.308,17.489c2.757,0,4.999-2.243,4.999-4.999s-2.242-4.999-4.999-4.999
	s-4.999,2.242-4.999,4.999S24.551,17.489,27.308,17.489z M46.551,5.538v43.54c0,3.059-2.479,5.538-5.538,5.538H13.603
	c-3.059,0-5.538-2.479-5.538-5.538V5.538C8.065,2.479,10.545,0,13.603,0h27.409C44.071,0,46.551,2.479,46.551,5.538z M19.309,12.49
	c0,4.411,3.588,7.999,7.999,7.999s7.999-3.588,7.999-7.999s-3.588-7.999-7.999-7.999S19.309,8.079,19.309,12.49z M40.213,36.533
	c0-7.116-5.789-12.905-12.905-12.905c-7.115,0-12.904,5.789-12.904,12.905s5.789,12.905,12.904,12.905
	C34.424,49.438,40.213,43.648,40.213,36.533z"/>
</svg>