<svg xmlns="http://www.w3.org/2000/svg" xmlns:xlink="http://www.w3.org/1999/xlink" width="1080" zoomAndPan="magnify" viewBox="0 0 810 809.999993" height="1080" preserveAspectRatio="xMidYMid meet" version="1.0"><defs><filter x="0%" y="0%" width="100%" height="100%" id="1cd0cf9287"><feColorMatrix values="0 0 0 0 1 0 0 0 0 1 0 0 0 0 1 0 0 0 1 0" color-interpolation-filters="sRGB"/></filter><clipPath id="bc2e9d00b6"><path d="M 0 642 L 810 642 L 810 727.472656 L 0 727.472656 Z M 0 642 " clip-rule="nonzero"/></clipPath><mask id="0b89b6ac8e"><g filter="url(#1cd0cf9287)"><rect x="-81" width="972" fill="#000000" y="-80.999999" height="971.999992" fill-opacity="0.15"/></g></mask><clipPath id="a04c13c75c"><path d="M 0.960938 0.480469 L 809.039062 0.480469 L 809.039062 85.472656 L 0.960938 85.472656 Z M 0.960938 0.480469 " clip-rule="nonzero"/></clipPath><clipPath id="e6416fd677"><rect x="0" width="810" y="0" height="86"/></clipPath><clipPath id="bca0cd1d78"><path d="M 245 706 L 810 706 L 810 727.472656 L 245 727.472656 Z M 245 706 " clip-rule="nonzero"/></clipPath><mask id="2120d09897"><g filter="url(#1cd0cf9287)"><rect x="-81" width="972" fill="#000000" y="-80.999999" height="971.999992" fill-opacity="0.15"/></g></mask><clipPath id="99a5d8f1f1"><path d="M 1 1 L 563 1 L 563 21.472656 L 1 21.472656 Z M 1 1 " clip-rule="nonzero"/></clipPath><clipPath id="621e616898"><rect x="0" width="565" y="0" height="22"/></clipPath><clipPath id="2c058bee94"><path d="M 70 82.472656 L 740 82.472656 L 740 480 L 70 480 Z M 70 82.472656 " clip-rule="nonzero"/></clipPath><mask id="563439a2db"><g filter="url(#1cd0cf9287)"><rect x="-81" width="972" fill="#000000" y="-80.999999" height="971.999992" fill-opacity="0.7"/></g></mask><clipPath id="6fe96796cb"><rect x="0" width="171" y="0" height="63"/></clipPath><mask id="6e0421f101"><g filter="url(#1cd0cf9287)"><rect x="-81" width="972" fill="#000000" y="-80.999999" height="971.999992" fill-opacity="0.3"/></g></mask><clipPath id="dd6d3f8e3e"><path d="M 349 0.0390625 L 413 0.0390625 L 413 17 L 349 17 Z M 349 0.0390625 " clip-rule="nonzero"/></clipPath><clipPath id="09432dfa30"><path d="M 279 0.0390625 L 343 0.0390625 L 343 17 L 279 17 Z M 279 0.0390625 " clip-rule="nonzero"/></clipPath><clipPath id="42a8a003da"><path d="M 420 0.0390625 L 483 0.0390625 L 483 17 L 420 17 Z M 420 0.0390625 " clip-rule="nonzero"/></clipPath><clipPath id="978e99f463"><path d="M 560 0.0390625 L 624 0.0390625 L 624 17 L 560 17 Z M 560 0.0390625 " clip-rule="nonzero"/></clipPath><clipPath id="5ec9dab366"><path d="M 630 0.0390625 L 660 0.0390625 L 660 17 L 630 17 Z M 630 0.0390625 " clip-rule="nonzero"/></clipPath><clipPath id="856cc67de6"><path d="M 490 0.0390625 L 553 0.0390625 L 553 17 L 490 17 Z M 490 0.0390625 " clip-rule="nonzero"/></clipPath><clipPath id="3b1556b1c8"><path d="M 24 0.0390625 L 62 0.0390625 L 62 17 L 24 17 Z M 24 0.0390625 " clip-rule="nonzero"/></clipPath><clipPath id="94d79e0db4"><path d="M 139 0.0390625 L 202 0.0390625 L 202 17 L 139 17 Z M 139 0.0390625 " clip-rule="nonzero"/></clipPath><clipPath id="571e6d39ff"><path d="M 209 0.0390625 L 273 0.0390625 L 273 17 L 209 17 Z M 209 0.0390625 " clip-rule="nonzero"/></clipPath><clipPath id="c0cac227eb"><path d="M 69 0.0390625 L 132 0.0390625 L 132 17 L 69 17 Z M 69 0.0390625 " clip-rule="nonzero"/></clipPath><clipPath id="ea87191f62"><rect x="0" width="683" y="0" height="98"/></clipPath><mask id="aaeb624992"><g filter="url(#1cd0cf9287)"><rect x="-81" width="972" fill="#000000" y="-80.999999" height="971.999992" fill-opacity="0.15"/></g></mask><clipPath id="c876d75684"><rect x="0" width="506" y="0" height="360"/></clipPath><mask id="430b1bff74"><g filter="url(#1cd0cf9287)"><rect x="-81" width="972" fill="#000000" y="-80.999999" height="971.999992" fill-opacity="0.09"/></g></mask><clipPath id="fd9ba5ffa4"><path d="M 0.238281 0.160156 L 333 0.160156 L 333 156 L 0.238281 156 Z M 0.238281 0.160156 " clip-rule="nonzero"/></clipPath><clipPath id="f8b57e998f"><rect x="0" width="334" y="0" height="157"/></clipPath><mask id="15dea20400"><g filter="url(#1cd0cf9287)"><rect x="-81" width="972" fill="#000000" y="-80.999999" height="971.999992" fill-opacity="0.15"/></g></mask><clipPath id="f915e9e026"><rect x="0" width="133" y="0" height="63"/></clipPath><mask id="3eebc0fc00"><g filter="url(#1cd0cf9287)"><rect x="-81" width="972" fill="#000000" y="-80.999999" height="971.999992" fill-opacity="0.05"/></g></mask><clipPath id="8380e904a0"><path d="M 1 0.519531 L 79 0.519531 L 79 31.960938 L 1 31.960938 Z M 1 0.519531 " clip-rule="nonzero"/></clipPath><clipPath id="d3d41a3b0f"><rect x="0" width="81" y="0" height="32"/></clipPath><mask id="50d3973917"><g filter="url(#1cd0cf9287)"><rect x="-81" width="972" fill="#000000" y="-80.999999" height="971.999992" fill-opacity="0.06"/></g></mask><clipPath id="90bbda9535"><path d="M 1 0.121094 L 194 0.121094 L 194 111.480469 L 1 111.480469 Z M 1 0.121094 " clip-rule="nonzero"/></clipPath><clipPath id="b27ab16381"><rect x="0" width="195" y="0" height="112"/></clipPath></defs><g clip-path="url(#bc2e9d00b6)"><path fill="#5569b0" d="M 809.019531 706.050781 L 807.722656 708.53125 L 802.710938 717.964844 C 799.621094 723.773438 792.496094 727.535156 784.605469 727.535156 L 26.484375 727.535156 C 19.203125 727.535156 12.613281 724.277344 9.234375 719.109375 L 0.980469 706.050781 L 414.449219 642.902344 Z M 809.019531 706.050781 " fill-opacity="1" fill-rule="nonzero"/><g mask="url(#0b89b6ac8e)"><g transform="matrix(1, 0, 0, 1, 0.000000000000000111, 642)"><g clip-path="url(#e6416fd677)"><g clip-path="url(#a04c13c75c)"><path fill="#1c274c" d="M 809.019531 64.054688 L 807.722656 66.53125 L 802.710938 75.964844 C 799.621094 81.773438 792.496094 85.535156 784.605469 85.535156 L 26.484375 85.535156 C 19.203125 85.535156 12.613281 82.277344 9.234375 77.109375 L 0.980469 64.054688 L 414.449219 0.902344 Z M 809.019531 64.054688 " fill-opacity="1" fill-rule="nonzero"/></g></g></g></g></g><g clip-path="url(#bca0cd1d78)"><g mask="url(#2120d09897)"><g transform="matrix(1, 0, 0, 1, 245, 706)"><g clip-path="url(#621e616898)"><g clip-path="url(#99a5d8f1f1)"><path fill="#1c274c" d="M 562.632812 2.53125 L 557.621094 11.964844 C 554.535156 17.773438 547.410156 21.535156 539.519531 21.535156 L 1.582031 21.535156 C 169.625 12.15625 340.578125 17.929688 509.644531 11.132812 C 527.988281 10.40625 548.222656 9 560.449219 1.300781 Z M 562.632812 2.53125 " fill-opacity="1" fill-rule="nonzero"/></g></g></g></g></g><path fill="#5569b0" d="M 803.230469 710.179688 L 6.769531 710.179688 C 6.304688 710.179688 5.84375 710.125 5.390625 710.019531 C 4.933594 709.910156 4.5 709.75 4.082031 709.542969 C 3.664062 709.332031 3.277344 709.074219 2.921875 708.773438 C 2.566406 708.472656 2.25 708.136719 1.972656 707.761719 C 1.695312 707.386719 1.464844 706.984375 1.28125 706.554688 C 1.097656 706.125 0.964844 705.679688 0.886719 705.21875 C 0.808594 704.761719 0.785156 704.296875 0.816406 703.832031 C 0.84375 703.367188 0.929688 702.910156 1.066406 702.464844 L 68.917969 483.390625 C 69.105469 482.78125 69.386719 482.21875 69.753906 481.699219 C 70.125 481.179688 70.566406 480.730469 71.078125 480.355469 C 71.59375 479.976562 72.152344 479.6875 72.757812 479.488281 C 73.363281 479.292969 73.984375 479.191406 74.621094 479.195312 L 735.378906 479.195312 C 736.015625 479.191406 736.636719 479.292969 737.242188 479.488281 C 737.847656 479.6875 738.40625 479.976562 738.921875 480.355469 C 739.433594 480.730469 739.875 481.179688 740.246094 481.699219 C 740.613281 482.21875 740.894531 482.78125 741.082031 483.390625 L 809.019531 702.496094 C 809.15625 702.945312 809.238281 703.40625 809.265625 703.871094 C 809.289062 704.339844 809.261719 704.804688 809.179688 705.265625 C 809.097656 705.726562 808.964844 706.171875 808.777344 706.601562 C 808.589844 707.03125 808.355469 707.433594 808.070312 707.804688 C 807.789062 708.179688 807.46875 708.515625 807.105469 708.816406 C 806.746094 709.113281 806.355469 709.363281 805.933594 709.570312 C 805.511719 709.777344 805.074219 709.933594 804.617188 710.035156 C 804.160156 710.136719 803.699219 710.1875 803.230469 710.179688 Z M 803.230469 710.179688 " fill-opacity="1" fill-rule="nonzero"/><g clip-path="url(#2c058bee94)"><path fill="#1c274c" d="M 79.527344 82.457031 L 730.472656 82.457031 C 731.082031 82.457031 731.6875 82.515625 732.289062 82.632812 C 732.886719 82.753906 733.46875 82.929688 734.035156 83.164062 C 734.597656 83.398438 735.136719 83.683594 735.644531 84.023438 C 736.152344 84.363281 736.625 84.75 737.054688 85.183594 C 737.488281 85.613281 737.875 86.085938 738.214844 86.59375 C 738.554688 87.101562 738.839844 87.640625 739.074219 88.203125 C 739.308594 88.769531 739.484375 89.351562 739.605469 89.949219 C 739.722656 90.550781 739.78125 91.15625 739.78125 91.765625 L 739.78125 470.351562 C 739.78125 470.960938 739.722656 471.566406 739.605469 472.167969 C 739.484375 472.765625 739.308594 473.347656 739.074219 473.914062 C 738.839844 474.480469 738.554688 475.015625 738.214844 475.523438 C 737.875 476.03125 737.488281 476.503906 737.054688 476.933594 C 736.621094 477.367188 736.152344 477.753906 735.644531 478.09375 C 735.136719 478.433594 734.597656 478.71875 734.035156 478.953125 C 733.46875 479.1875 732.886719 479.363281 732.289062 479.484375 C 731.6875 479.601562 731.082031 479.660156 730.472656 479.660156 L 79.527344 479.660156 C 78.917969 479.660156 78.3125 479.601562 77.710938 479.484375 C 77.113281 479.363281 76.53125 479.1875 75.964844 478.953125 C 75.402344 478.71875 74.863281 478.433594 74.355469 478.09375 C 73.847656 477.753906 73.375 477.367188 72.945312 476.933594 C 72.511719 476.503906 72.125 476.03125 71.785156 475.523438 C 71.445312 475.015625 71.160156 474.480469 70.925781 473.914062 C 70.691406 473.347656 70.515625 472.765625 70.394531 472.167969 C 70.277344 471.566406 70.21875 470.960938 70.21875 470.351562 L 70.21875 91.765625 C 70.21875 91.15625 70.277344 90.550781 70.394531 89.949219 C 70.515625 89.351562 70.691406 88.769531 70.925781 88.203125 C 71.160156 87.640625 71.445312 87.101562 71.785156 86.59375 C 72.125 86.085938 72.511719 85.613281 72.945312 85.183594 C 73.375 84.75 73.847656 84.363281 74.355469 84.023438 C 74.863281 83.683594 75.402344 83.398438 75.964844 83.164062 C 76.53125 82.929688 77.113281 82.753906 77.710938 82.632812 C 78.3125 82.515625 78.917969 82.457031 79.527344 82.457031 Z M 79.527344 82.457031 " fill-opacity="1" fill-rule="nonzero"/></g><path fill="#8d93a5" d="M 92.847656 103.261719 L 717.152344 103.261719 C 717.550781 103.261719 717.941406 103.300781 718.328125 103.378906 C 718.714844 103.457031 719.089844 103.570312 719.457031 103.722656 C 719.820312 103.871094 720.167969 104.058594 720.496094 104.277344 C 720.824219 104.496094 721.128906 104.746094 721.410156 105.027344 C 721.6875 105.304688 721.9375 105.609375 722.15625 105.9375 C 722.375 106.265625 722.5625 106.613281 722.714844 106.976562 C 722.863281 107.34375 722.976562 107.71875 723.054688 108.105469 C 723.132812 108.492188 723.171875 108.886719 723.171875 109.28125 L 723.171875 452.820312 C 723.171875 453.214844 723.132812 453.605469 723.054688 453.992188 C 722.976562 454.382812 722.863281 454.757812 722.714844 455.121094 C 722.5625 455.488281 722.375 455.835938 722.15625 456.164062 C 721.9375 456.492188 721.6875 456.796875 721.410156 457.074219 C 721.128906 457.355469 720.824219 457.601562 720.496094 457.824219 C 720.167969 458.042969 719.820312 458.226562 719.457031 458.378906 C 719.089844 458.53125 718.714844 458.644531 718.328125 458.722656 C 717.941406 458.796875 717.550781 458.835938 717.152344 458.835938 L 92.847656 458.835938 C 92.449219 458.835938 92.058594 458.796875 91.671875 458.722656 C 91.285156 458.644531 90.910156 458.53125 90.542969 458.378906 C 90.179688 458.226562 89.832031 458.042969 89.503906 457.824219 C 89.175781 457.601562 88.871094 457.355469 88.589844 457.074219 C 88.3125 456.796875 88.0625 456.492188 87.84375 456.164062 C 87.625 455.835938 87.4375 455.488281 87.285156 455.121094 C 87.136719 454.757812 87.023438 454.382812 86.945312 453.992188 C 86.867188 453.605469 86.828125 453.214844 86.828125 452.820312 L 86.828125 109.28125 C 86.828125 108.886719 86.867188 108.492188 86.945312 108.105469 C 87.023438 107.71875 87.136719 107.34375 87.285156 106.976562 C 87.4375 106.613281 87.625 106.265625 87.84375 105.9375 C 88.0625 105.609375 88.3125 105.304688 88.589844 105.027344 C 88.871094 104.746094 89.175781 104.496094 89.503906 104.277344 C 89.832031 104.058594 90.179688 103.871094 90.542969 103.722656 C 90.910156 103.570312 91.285156 103.457031 91.671875 103.378906 C 92.058594 103.300781 92.449219 103.261719 92.847656 103.261719 Z M 92.847656 103.261719 " fill-opacity="1" fill-rule="nonzero"/><g mask="url(#563439a2db)"><g transform="matrix(1, 0, 0, 1, 307, 630)"><g clip-path="url(#6fe96796cb)"><path fill="#1c274c" d="M 163.179688 61.921875 L 8.960938 61.921875 C 5.023438 61.921875 2.023438 58.988281 2.71875 55.78125 L 13.121094 5.980469 C 13.316406 5.320312 13.617188 4.710938 14.019531 4.152344 C 14.425781 3.59375 14.910156 3.113281 15.472656 2.71875 C 16.039062 2.324219 16.652344 2.03125 17.316406 1.847656 C 17.980469 1.660156 18.65625 1.585938 19.347656 1.628906 L 152.726562 1.628906 C 153.203125 1.632812 153.675781 1.675781 154.148438 1.769531 C 154.710938 1.84375 155.25 2 155.765625 2.238281 C 156.28125 2.472656 156.753906 2.777344 157.183594 3.152344 C 157.609375 3.527344 157.972656 3.957031 158.273438 4.4375 C 158.574219 4.917969 158.800781 5.433594 158.949219 5.980469 L 169.355469 55.78125 C 170.082031 58.988281 167.117188 61.921875 163.179688 61.921875 Z M 163.179688 61.921875 " fill-opacity="1" fill-rule="nonzero"/></g></g></g><path fill="#1c274c" d="M 290.46875 564.28125 L 336.59375 564.28125 L 336.59375 585.46875 L 290.46875 585.46875 Z M 290.46875 564.28125 " fill-opacity="1" fill-rule="nonzero"/><path fill="#1c274c" d="M 480.515625 517.585938 L 417.988281 517.585938 L 417.988281 533.726562 L 480.515625 533.726562 Z M 480.515625 517.585938 " fill-opacity="1" fill-rule="nonzero"/><path fill="#1c274c" d="M 445.871094 539.96875 L 491.996094 539.96875 L 491.996094 558.054688 L 445.871094 558.054688 Z M 445.871094 539.96875 " fill-opacity="1" fill-rule="nonzero"/><path fill="#1c274c" d="M 497.664062 539.96875 L 543.789062 539.96875 L 543.789062 558.054688 L 497.664062 558.054688 Z M 497.664062 539.96875 " fill-opacity="1" fill-rule="nonzero"/><path fill="#1c274c" d="M 497.664062 564.28125 L 543.789062 564.28125 L 543.789062 585.46875 L 497.664062 585.46875 Z M 497.664062 564.28125 " fill-opacity="1" fill-rule="nonzero"/><path fill="#1c274c" d="M 410.289062 517.585938 L 347.777344 517.585938 L 347.777344 533.726562 L 410.304688 533.726562 Z M 410.289062 517.585938 " fill-opacity="1" fill-rule="nonzero"/><path fill="#1c274c" d="M 342.265625 539.96875 L 388.386719 539.96875 L 388.386719 558.054688 L 342.265625 558.054688 Z M 342.265625 539.96875 " fill-opacity="1" fill-rule="nonzero"/><path fill="#1c274c" d="M 342.265625 564.28125 L 388.386719 564.28125 L 388.386719 585.46875 L 342.265625 585.46875 Z M 342.265625 564.28125 " fill-opacity="1" fill-rule="nonzero"/><path fill="#1c274c" d="M 394.074219 564.28125 L 440.199219 564.28125 L 440.199219 585.46875 L 394.074219 585.46875 Z M 394.074219 564.28125 " fill-opacity="1" fill-rule="nonzero"/><path fill="#1c274c" d="M 394.074219 539.96875 L 440.199219 539.96875 L 440.199219 558.054688 L 394.074219 558.054688 Z M 394.074219 539.96875 " fill-opacity="1" fill-rule="nonzero"/><path fill="#1c274c" d="M 550.65625 517.585938 L 488.230469 517.585938 L 488.230469 533.726562 L 550.65625 533.726562 Z M 550.65625 517.585938 " fill-opacity="1" fill-rule="nonzero"/><path fill="#1c274c" d="M 445.871094 564.28125 L 491.996094 564.28125 L 491.996094 585.46875 L 445.871094 585.46875 Z M 445.871094 564.28125 " fill-opacity="1" fill-rule="nonzero"/><path fill="#1c274c" d="M 549.476562 585.488281 L 647.394531 585.488281 L 647.394531 539.96875 L 601.269531 539.96875 L 601.269531 564.28125 L 549.476562 564.28125 Z M 549.476562 585.488281 " fill-opacity="1" fill-rule="nonzero"/><path fill="#1c274c" d="M 129.398438 539.96875 L 90.488281 539.96875 C 88.753906 545.992188 87.078125 552.023438 85.460938 558.054688 L 129.398438 558.054688 Z M 129.398438 539.96875 " fill-opacity="1" fill-rule="nonzero"/><path fill="#1c274c" d="M 704.878906 558.054688 L 734.183594 558.054688 C 732.527344 552.054688 730.875 546.027344 729.222656 539.96875 L 704.945312 539.96875 Z M 704.878906 558.054688 " fill-opacity="1" fill-rule="nonzero"/><path fill="#1c274c" d="M 691.109375 517.585938 L 628.6875 517.585938 L 628.6875 533.726562 L 691.109375 533.726562 Z M 691.109375 517.585938 " fill-opacity="1" fill-rule="nonzero"/><path fill="#1c274c" d="M 723.101562 517.585938 L 698.824219 517.585938 L 698.824219 533.726562 L 727.523438 533.726562 C 726.03125 528.351562 724.558594 522.90625 723.101562 517.585938 Z M 723.101562 517.585938 " fill-opacity="1" fill-rule="nonzero"/><path fill="#1c274c" d="M 549.476562 539.96875 L 595.601562 539.96875 L 595.601562 558.054688 L 549.476562 558.054688 Z M 549.476562 539.96875 " fill-opacity="1" fill-rule="nonzero"/><path fill="#1c274c" d="M 620.953125 517.585938 L 558.425781 517.585938 L 558.425781 533.726562 L 620.953125 533.726562 Z M 620.953125 517.585938 " fill-opacity="1" fill-rule="nonzero"/><path fill="#1c274c" d="M 704.878906 564.28125 L 653.066406 564.28125 L 653.066406 585.488281 L 741.601562 585.488281 C 739.75 578.550781 737.824219 571.425781 735.882812 564.28125 Z M 704.878906 564.28125 " fill-opacity="1" fill-rule="nonzero"/><path fill="#1c274c" d="M 290.46875 539.96875 L 336.59375 539.96875 L 336.59375 558.054688 L 290.46875 558.054688 Z M 290.46875 539.96875 " fill-opacity="1" fill-rule="nonzero"/><path fill="#1c274c" d="M 549.476562 614.308594 L 595.601562 614.308594 L 595.601562 591.765625 L 549.476562 591.765625 Z M 549.476562 614.308594 " fill-opacity="1" fill-rule="nonzero"/><path fill="#1c274c" d="M 290.554688 614.308594 L 336.679688 614.308594 L 336.679688 591.765625 L 290.554688 591.765625 Z M 290.554688 614.308594 " fill-opacity="1" fill-rule="nonzero"/><path fill="#1c274c" d="M 427.195312 591.714844 L 342.230469 591.714844 L 342.230469 614.253906 L 491.960938 614.253906 L 491.960938 591.714844 Z M 427.195312 591.714844 " fill-opacity="1" fill-rule="nonzero"/><path fill="#1c274c" d="M 497.664062 614.308594 L 543.71875 614.308594 L 543.71875 591.765625 L 497.59375 591.765625 Z M 497.664062 614.308594 " fill-opacity="1" fill-rule="nonzero"/><path fill="#1c274c" d="M 743.25 591.714844 L 601.269531 591.714844 L 601.269531 614.253906 L 749.042969 614.253906 C 747.226562 606.925781 745.296875 599.410156 743.25 591.714844 Z M 743.25 591.714844 " fill-opacity="1" fill-rule="nonzero"/><path fill="#1c274c" d="M 129.398438 585.488281 L 181.191406 585.488281 L 181.191406 564.28125 L 83.777344 564.28125 C 81.851562 571.441406 79.980469 578.535156 78.125 585.488281 Z M 129.398438 585.488281 " fill-opacity="1" fill-rule="nonzero"/><path fill="#1c274c" d="M 129.398438 517.585938 L 97.234375 517.585938 C 95.5 522.890625 93.886719 528.300781 92.289062 533.726562 L 129.398438 533.726562 Z M 129.398438 517.585938 " fill-opacity="1" fill-rule="nonzero"/><path fill="#1c274c" d="M 653.066406 539.96875 L 699.191406 539.96875 L 699.191406 558.054688 L 653.066406 558.054688 Z M 653.066406 539.96875 " fill-opacity="1" fill-rule="nonzero"/><path fill="#1c274c" d="M 269.835938 517.585938 L 207.324219 517.585938 L 207.324219 533.726562 L 269.851562 533.726562 Z M 269.835938 517.585938 " fill-opacity="1" fill-rule="nonzero"/><path fill="#1c274c" d="M 186.878906 539.96875 L 233.003906 539.96875 L 233.003906 558.054688 L 186.878906 558.054688 Z M 186.878906 539.96875 " fill-opacity="1" fill-rule="nonzero"/><path fill="#1c274c" d="M 277.535156 533.726562 L 340.0625 533.726562 L 340.0625 517.585938 L 277.535156 517.585938 Z M 277.535156 533.726562 " fill-opacity="1" fill-rule="nonzero"/><path fill="#1c274c" d="M 238.675781 564.28125 L 284.800781 564.28125 L 284.800781 585.46875 L 238.675781 585.46875 Z M 238.675781 564.28125 " fill-opacity="1" fill-rule="nonzero"/><path fill="#1c274c" d="M 238.675781 614.308594 L 284.800781 614.308594 L 284.800781 591.765625 L 238.675781 591.765625 Z M 238.675781 614.308594 " fill-opacity="1" fill-rule="nonzero"/><path fill="#1c274c" d="M 238.675781 539.96875 L 284.800781 539.96875 L 284.800781 558.054688 L 238.675781 558.054688 Z M 238.675781 539.96875 " fill-opacity="1" fill-rule="nonzero"/><path fill="#1c274c" d="M 186.878906 564.28125 L 233.003906 564.28125 L 233.003906 585.46875 L 186.878906 585.46875 Z M 186.878906 564.28125 " fill-opacity="1" fill-rule="nonzero"/><path fill="#1c274c" d="M 199.625 517.585938 L 137.097656 517.585938 L 137.097656 533.726562 L 199.625 533.726562 Z M 199.625 517.585938 " fill-opacity="1" fill-rule="nonzero"/><path fill="#1c274c" d="M 170.304688 591.714844 L 76.460938 591.714844 C 74.34375 599.535156 72.261719 607.109375 70.183594 614.253906 L 233.003906 614.253906 L 233.003906 591.714844 Z M 170.304688 591.714844 " fill-opacity="1" fill-rule="nonzero"/><path fill="#1c274c" d="M 135.070312 539.96875 L 181.191406 539.96875 L 181.191406 558.054688 L 135.070312 558.054688 Z M 135.070312 539.96875 " fill-opacity="1" fill-rule="nonzero"/><g mask="url(#6e0421f101)"><g transform="matrix(1, 0, 0, 1, 68, 521)"><g clip-path="url(#ea87191f62)"><path fill="#1c274c" d="M 222.46875 46.941406 L 268.59375 46.941406 L 268.59375 67.902344 L 222.46875 67.902344 Z M 222.46875 46.941406 " fill-opacity="1" fill-rule="nonzero"/><g clip-path="url(#dd6d3f8e3e)"><path fill="#1c274c" d="M 412.515625 0.730469 L 349.988281 0.730469 L 349.988281 16.714844 L 412.515625 16.714844 Z M 412.515625 0.730469 " fill-opacity="1" fill-rule="nonzero"/></g><path fill="#1c274c" d="M 377.871094 22.890625 L 423.996094 22.890625 L 423.996094 40.765625 L 377.871094 40.765625 Z M 377.871094 22.890625 " fill-opacity="1" fill-rule="nonzero"/><path fill="#1c274c" d="M 429.664062 22.890625 L 475.789062 22.890625 L 475.789062 40.765625 L 429.664062 40.765625 Z M 429.664062 22.890625 " fill-opacity="1" fill-rule="nonzero"/><path fill="#1c274c" d="M 429.664062 46.941406 L 475.789062 46.941406 L 475.789062 67.902344 L 429.664062 67.902344 Z M 429.664062 46.941406 " fill-opacity="1" fill-rule="nonzero"/><g clip-path="url(#09432dfa30)"><path fill="#1c274c" d="M 342.289062 0.730469 L 279.777344 0.730469 L 279.777344 16.714844 L 342.304688 16.714844 Z M 342.289062 0.730469 " fill-opacity="1" fill-rule="nonzero"/></g><path fill="#1c274c" d="M 274.265625 22.890625 L 320.386719 22.890625 L 320.386719 40.765625 L 274.265625 40.765625 Z M 274.265625 22.890625 " fill-opacity="1" fill-rule="nonzero"/><path fill="#1c274c" d="M 274.265625 46.941406 L 320.386719 46.941406 L 320.386719 67.902344 L 274.265625 67.902344 Z M 274.265625 46.941406 " fill-opacity="1" fill-rule="nonzero"/><path fill="#1c274c" d="M 326.074219 46.941406 L 372.199219 46.941406 L 372.199219 67.902344 L 326.074219 67.902344 Z M 326.074219 46.941406 " fill-opacity="1" fill-rule="nonzero"/><path fill="#1c274c" d="M 326.074219 22.890625 L 372.199219 22.890625 L 372.199219 40.765625 L 326.074219 40.765625 Z M 326.074219 22.890625 " fill-opacity="1" fill-rule="nonzero"/><g clip-path="url(#42a8a003da)"><path fill="#1c274c" d="M 482.65625 0.730469 L 420.230469 0.730469 L 420.230469 16.714844 L 482.65625 16.714844 Z M 482.65625 0.730469 " fill-opacity="1" fill-rule="nonzero"/></g><path fill="#1c274c" d="M 377.871094 46.941406 L 423.996094 46.941406 L 423.996094 67.902344 L 377.871094 67.902344 Z M 377.871094 46.941406 " fill-opacity="1" fill-rule="nonzero"/><path fill="#1c274c" d="M 481.476562 67.902344 L 579.394531 67.902344 L 579.394531 22.890625 L 533.269531 22.890625 L 533.269531 46.941406 L 481.476562 46.941406 Z M 481.476562 67.902344 " fill-opacity="1" fill-rule="nonzero"/><path fill="#1c274c" d="M 61.398438 22.890625 L 22.488281 22.890625 C 20.753906 28.835938 19.019531 34.820312 17.460938 40.765625 L 61.398438 40.765625 Z M 61.398438 22.890625 " fill-opacity="1" fill-rule="nonzero"/><path fill="#1c274c" d="M 636.878906 40.765625 L 666.183594 40.765625 C 664.527344 34.835938 662.875 28.878906 661.222656 22.890625 L 636.945312 22.890625 Z M 636.878906 40.765625 " fill-opacity="1" fill-rule="nonzero"/><g clip-path="url(#978e99f463)"><path fill="#1c274c" d="M 623.109375 0.730469 L 560.6875 0.730469 L 560.6875 16.714844 L 623.109375 16.714844 Z M 623.109375 0.730469 " fill-opacity="1" fill-rule="nonzero"/></g><g clip-path="url(#5ec9dab366)"><path fill="#1c274c" d="M 655.101562 0.730469 L 630.824219 0.730469 L 630.824219 16.714844 L 659.523438 16.714844 C 658.03125 11.394531 656.558594 6.050781 655.101562 0.730469 Z M 655.101562 0.730469 " fill-opacity="1" fill-rule="nonzero"/></g><path fill="#1c274c" d="M 481.476562 22.890625 L 527.601562 22.890625 L 527.601562 40.765625 L 481.476562 40.765625 Z M 481.476562 22.890625 " fill-opacity="1" fill-rule="nonzero"/><g clip-path="url(#856cc67de6)"><path fill="#1c274c" d="M 552.953125 0.730469 L 490.425781 0.730469 L 490.425781 16.714844 L 552.953125 16.714844 Z M 552.953125 0.730469 " fill-opacity="1" fill-rule="nonzero"/></g><path fill="#1c274c" d="M 636.878906 46.992188 L 585.066406 46.992188 L 585.066406 67.957031 L 673.601562 67.957031 C 671.75 61.019531 669.824219 54.082031 667.882812 46.992188 Z M 636.878906 46.992188 " fill-opacity="1" fill-rule="nonzero"/><path fill="#1c274c" d="M 222.46875 22.890625 L 268.59375 22.890625 L 268.59375 40.765625 L 222.46875 40.765625 Z M 222.46875 22.890625 " fill-opacity="1" fill-rule="nonzero"/><path fill="#1c274c" d="M 481.476562 96.429688 L 527.601562 96.429688 L 527.601562 74.078125 L 481.476562 74.078125 Z M 481.476562 96.429688 " fill-opacity="1" fill-rule="nonzero"/><path fill="#1c274c" d="M 222.554688 96.429688 L 268.679688 96.429688 L 268.679688 74.078125 L 222.554688 74.078125 Z M 222.554688 96.429688 " fill-opacity="1" fill-rule="nonzero"/><path fill="#1c274c" d="M 359.195312 74.078125 L 274.230469 74.078125 L 274.230469 96.429688 L 423.960938 96.429688 L 423.960938 74.078125 Z M 359.195312 74.078125 " fill-opacity="1" fill-rule="nonzero"/><path fill="#1c274c" d="M 429.664062 96.429688 L 475.71875 96.429688 L 475.71875 74.078125 L 429.59375 74.078125 Z M 429.664062 96.429688 " fill-opacity="1" fill-rule="nonzero"/><path fill="#1c274c" d="M 675.25 74.078125 L 533.269531 74.078125 L 533.269531 96.429688 L 681.042969 96.429688 C 679.226562 89.132812 677.296875 81.683594 675.25 74.078125 Z M 675.25 74.078125 " fill-opacity="1" fill-rule="nonzero"/><path fill="#1c274c" d="M 61.398438 67.902344 L 113.191406 67.902344 L 113.191406 46.992188 L 15.777344 46.992188 C 13.851562 54.066406 11.980469 61.089844 10.125 67.957031 Z M 61.398438 67.902344 " fill-opacity="1" fill-rule="nonzero"/><g clip-path="url(#3b1556b1c8)"><path fill="#1c274c" d="M 61.398438 0.730469 L 29.234375 0.730469 C 27.535156 6 25.886719 11.328125 24.289062 16.714844 L 61.398438 16.714844 Z M 61.398438 0.730469 " fill-opacity="1" fill-rule="nonzero"/></g><path fill="#1c274c" d="M 585.066406 22.890625 L 631.191406 22.890625 L 631.191406 40.765625 L 585.066406 40.765625 Z M 585.066406 22.890625 " fill-opacity="1" fill-rule="nonzero"/><g clip-path="url(#94d79e0db4)"><path fill="#1c274c" d="M 201.835938 0.730469 L 139.324219 0.730469 L 139.324219 16.714844 L 201.851562 16.714844 Z M 201.835938 0.730469 " fill-opacity="1" fill-rule="nonzero"/></g><path fill="#1c274c" d="M 118.878906 22.890625 L 165.003906 22.890625 L 165.003906 40.765625 L 118.878906 40.765625 Z M 118.878906 22.890625 " fill-opacity="1" fill-rule="nonzero"/><g clip-path="url(#571e6d39ff)"><path fill="#1c274c" d="M 209.535156 16.714844 L 272.0625 16.714844 L 272.0625 0.730469 L 209.535156 0.730469 Z M 209.535156 16.714844 " fill-opacity="1" fill-rule="nonzero"/></g><path fill="#1c274c" d="M 170.675781 46.941406 L 216.800781 46.941406 L 216.800781 67.902344 L 170.675781 67.902344 Z M 170.675781 46.941406 " fill-opacity="1" fill-rule="nonzero"/><path fill="#1c274c" d="M 170.675781 96.429688 L 216.800781 96.429688 L 216.800781 74.078125 L 170.675781 74.078125 Z M 170.675781 96.429688 " fill-opacity="1" fill-rule="nonzero"/><path fill="#1c274c" d="M 170.675781 22.890625 L 216.800781 22.890625 L 216.800781 40.765625 L 170.675781 40.765625 Z M 170.675781 22.890625 " fill-opacity="1" fill-rule="nonzero"/><path fill="#1c274c" d="M 118.878906 46.941406 L 165.003906 46.941406 L 165.003906 67.902344 L 118.878906 67.902344 Z M 118.878906 46.941406 " fill-opacity="1" fill-rule="nonzero"/><g clip-path="url(#c0cac227eb)"><path fill="#1c274c" d="M 131.625 0.730469 L 69.097656 0.730469 L 69.097656 16.714844 L 131.625 16.714844 Z M 131.625 0.730469 " fill-opacity="1" fill-rule="nonzero"/></g><path fill="#1c274c" d="M 102.304688 74.078125 L 8.460938 74.078125 C 6.34375 81.8125 4.261719 89.320312 2.183594 96.429688 L 165.003906 96.429688 L 165.003906 74.078125 Z M 102.304688 74.078125 " fill-opacity="1" fill-rule="nonzero"/><path fill="#1c274c" d="M 67.070312 22.890625 L 113.191406 22.890625 L 113.191406 40.765625 L 67.070312 40.765625 Z M 67.070312 22.890625 " fill-opacity="1" fill-rule="nonzero"/></g></g></g><g mask="url(#aaeb624992)"><g transform="matrix(1, 0, 0, 1, 219, 101)"><g clip-path="url(#c876d75684)"><path fill="#1c274c" d="M 504.171875 8.28125 L 504.171875 351.820312 C 504.171875 352.214844 504.132812 352.605469 504.054688 352.992188 C 503.976562 353.382812 503.863281 353.757812 503.714844 354.121094 C 503.5625 354.488281 503.375 354.835938 503.15625 355.164062 C 502.9375 355.492188 502.6875 355.796875 502.410156 356.074219 C 502.128906 356.355469 501.824219 356.601562 501.496094 356.824219 C 501.167969 357.042969 500.820312 357.226562 500.457031 357.378906 C 500.089844 357.53125 499.714844 357.644531 499.328125 357.722656 C 498.941406 357.796875 498.550781 357.835938 498.152344 357.835938 L 1.9375 357.835938 C 132.453125 350.78125 264.480469 358.476562 394.878906 346.515625 C 424.183594 343.824219 457.164062 337.949219 473.410156 313.410156 C 482.269531 300.058594 484.386719 283.464844 486.050781 267.53125 C 495.316406 179.3125 498.425781 90.878906 495.378906 2.230469 L 498.121094 2.230469 C 498.515625 2.226562 498.910156 2.261719 499.300781 2.339844 C 499.691406 2.414062 500.074219 2.527344 500.441406 2.679688 C 500.808594 2.832031 501.160156 3.015625 501.488281 3.238281 C 501.820312 3.457031 502.128906 3.710938 502.410156 3.992188 C 502.691406 4.273438 502.941406 4.578125 503.160156 4.910156 C 503.382812 5.242188 503.570312 5.589844 503.71875 5.960938 C 503.871094 6.328125 503.984375 6.707031 504.0625 7.097656 C 504.136719 7.488281 504.171875 7.882812 504.171875 8.28125 Z M 504.171875 8.28125 " fill-opacity="1" fill-rule="nonzero"/></g></g></g><g mask="url(#430b1bff74)"><g transform="matrix(1, 0, 0, 1, 96, 110)"><g clip-path="url(#f8b57e998f)"><g clip-path="url(#fd9ba5ffa4)"><path fill="#ffffff" d="M 0.9375 155.773438 L 0.9375 20.78125 C 0.9375 20.214844 0.960938 19.648438 1.015625 19.082031 C 1.066406 18.515625 1.148438 17.957031 1.257812 17.398438 C 1.363281 16.839844 1.5 16.289062 1.660156 15.746094 C 1.824219 15.199219 2.011719 14.664062 2.226562 14.140625 C 2.4375 13.613281 2.679688 13.097656 2.941406 12.597656 C 3.207031 12.09375 3.496094 11.605469 3.808594 11.132812 C 4.121094 10.65625 4.453125 10.199219 4.8125 9.757812 C 5.167969 9.316406 5.546875 8.890625 5.945312 8.488281 C 6.34375 8.082031 6.757812 7.699219 7.195312 7.335938 C 7.632812 6.96875 8.082031 6.628906 8.554688 6.308594 C 9.023438 5.988281 9.507812 5.691406 10.003906 5.421875 C 10.503906 5.148438 11.011719 4.902344 11.535156 4.679688 C 12.058594 4.457031 12.589844 4.257812 13.132812 4.089844 C 13.671875 3.917969 14.222656 3.773438 14.777344 3.65625 C 15.332031 3.539062 15.894531 3.453125 16.457031 3.390625 C 17.023438 3.328125 17.589844 3.292969 18.15625 3.285156 L 332.289062 0.527344 C 257.363281 25.34375 198.769531 37.496094 156.53125 44.050781 C 125.578125 48.855469 92.925781 52.289062 75.863281 77.429688 C 60.464844 100.09375 68.183594 124.996094 48.484375 142.714844 C 34.160156 155.582031 14.308594 156.589844 0.9375 155.773438 Z M 0.9375 155.773438 " fill-opacity="1" fill-rule="nonzero"/></g></g></g></g><g mask="url(#15dea20400)"><g transform="matrix(1, 0, 0, 1, 345, 630)"><g clip-path="url(#f915e9e026)"><path fill="#1c274c" d="M 125.179688 61.921875 L 2.414062 61.921875 C 39.742188 58.984375 77.0625 55.863281 114.378906 52.558594 C 116.890625 52.332031 119.683594 51.984375 121.3125 50.078125 C 122.945312 48.171875 122.945312 45.050781 122.667969 42.378906 C 121.226562 28.726562 119.058594 15.1875 116.164062 1.769531 C 116.726562 1.84375 117.265625 2 117.785156 2.238281 C 118.300781 2.472656 118.773438 2.777344 119.199219 3.152344 C 119.625 3.527344 119.992188 3.957031 120.292969 4.4375 C 120.59375 4.917969 120.816406 5.433594 120.96875 5.980469 L 131.371094 55.78125 C 132.082031 58.988281 129.117188 61.921875 125.179688 61.921875 Z M 125.179688 61.921875 " fill-opacity="1" fill-rule="nonzero"/></g></g></g><g mask="url(#3eebc0fc00)"><g transform="matrix(1, 0, 0, 1, 318, 635)"><g clip-path="url(#d3d41a3b0f)"><g clip-path="url(#8380e904a0)"><path fill="#ffffff" d="M 1.183594 28.363281 C 2.804688 20.929688 4.410156 13.496094 6.003906 6.0625 C 6.15625 5.328125 6.421875 4.640625 6.808594 4 C 7.199219 3.359375 7.679688 2.800781 8.261719 2.328125 C 8.839844 1.855469 9.484375 1.492188 10.1875 1.238281 C 10.894531 0.988281 11.621094 0.863281 12.367188 0.859375 L 78.816406 0.859375 C 63.539062 3.667969 37.40625 6.0625 29.414062 10.207031 C 25.007812 12.476562 24.820312 23.195312 14.902344 28.292969 C 6.648438 32.644531 4.304688 31.828125 1.183594 28.363281 Z M 1.183594 28.363281 " fill-opacity="1" fill-rule="nonzero"/></g></g></g></g><g mask="url(#50d3973917)"><g transform="matrix(1, 0, 0, 1, 16, 585)"><g clip-path="url(#b27ab16381)"><g clip-path="url(#90bbda9535)"><path fill="#ffffff" d="M 33.355469 0.488281 C 21.636719 34.699219 13.484375 68.910156 1.765625 103.140625 C 1.613281 103.609375 1.523438 104.089844 1.488281 104.578125 C 1.457031 105.070312 1.480469 105.558594 1.566406 106.042969 C 1.648438 106.527344 1.789062 106.996094 1.984375 107.449219 C 2.179688 107.898438 2.425781 108.320312 2.726562 108.710938 C 3.023438 109.105469 3.363281 109.453125 3.742188 109.765625 C 4.125 110.074219 4.539062 110.335938 4.984375 110.546875 C 5.429688 110.757812 5.890625 110.910156 6.371094 111.011719 C 6.855469 111.109375 7.339844 111.152344 7.832031 111.132812 L 193.941406 111.132812 C 176.339844 103.109375 157.929688 97.964844 138.714844 95.703125 C 107.988281 92.234375 86.296875 97.886719 48.824219 88.453125 C 43.8125 87.1875 39.460938 85.90625 35.957031 84.777344 C 35.328125 84.585938 34.75 84.296875 34.21875 83.914062 C 33.6875 83.527344 33.230469 83.066406 32.855469 82.53125 C 32.476562 81.992188 32.199219 81.40625 32.015625 80.777344 C 31.835938 80.144531 31.761719 79.503906 31.796875 78.847656 C 33.53125 52.679688 31.640625 26.585938 33.355469 0.488281 Z M 33.355469 0.488281 " fill-opacity="1" fill-rule="nonzero"/></g></g></g></g></svg>