<svg xmlns="http://www.w3.org/2000/svg" xmlns:xlink="http://www.w3.org/1999/xlink" width="1080"
    zoomAndPan="magnify" viewBox="0 0 810 809.999993" height="1080"
    preserveAspectRatio="xMidYMid meet" version="1.0">
    <defs>
        <clipPath id="d7fc6d6794">
            <path d="M 8.121094 32 L 801.621094 32 L 801.621094 805 L 8.121094 805 Z M 8.121094 32 "
                clip-rule="nonzero" />
        </clipPath>
    </defs>
    <g clip-path="url(#d7fc6d6794)">
        <path fill="#1c274c"
            d="M 727.023438 35.597656 L 772.039062 35.597656 L 772.039062 52.703125 L 727.023438 52.703125 Z M 779.675781 79.164062 L 709.554688 79.164062 L 709.554688 347.992188 L 779.675781 347.992188 C 787.519531 347.992188 793.933594 341.578125 793.933594 333.734375 L 793.933594 93.421875 C 793.933594 85.578125 787.519531 79.164062 779.675781 79.164062 Z M 764.972656 283.03125 C 764.972656 290.339844 759.050781 296.261719 751.742188 296.261719 C 744.4375 296.261719 738.515625 290.339844 738.515625 283.03125 L 738.515625 144.125 C 738.515625 136.820312 744.4375 130.894531 751.742188 130.894531 C 759.050781 130.894531 764.972656 136.820312 764.972656 144.125 Z M 578.261719 139.25 C 537.207031 139.25 503.933594 172.527344 503.933594 213.578125 C 503.933594 254.632812 537.207031 287.90625 578.261719 287.90625 C 619.316406 287.90625 652.589844 254.632812 652.589844 213.578125 C 652.589844 172.527344 619.316406 139.25 578.261719 139.25 Z M 578.261719 254.742188 C 585.566406 254.742188 591.492188 260.664062 591.492188 267.972656 C 591.492188 275.277344 585.566406 281.199219 578.261719 281.199219 C 540.917969 281.199219 510.636719 250.921875 510.636719 213.574219 C 510.636719 176.230469 540.914062 145.953125 578.261719 145.953125 C 585.566406 145.953125 591.492188 151.875 591.492188 159.179688 C 591.492188 166.488281 585.566406 172.410156 578.261719 172.410156 C 555.523438 172.410156 537.09375 190.839844 537.09375 213.574219 C 537.09375 236.3125 555.523438 254.742188 578.261719 254.742188 Z M 462.789062 79.164062 C 454.949219 79.164062 448.53125 85.582031 448.53125 93.421875 L 448.53125 333.734375 C 448.53125 341.578125 454.949219 347.992188 462.789062 347.992188 L 683.09375 347.992188 L 683.09375 79.164062 Z M 578.261719 314.367188 C 522.601562 314.367188 477.472656 269.238281 477.472656 213.578125 C 477.472656 157.917969 522.601562 112.789062 578.261719 112.789062 C 633.921875 112.789062 679.050781 157.917969 679.050781 213.578125 C 679.050781 269.238281 633.921875 314.367188 578.261719 314.367188 Z M 669.410156 52.707031 L 661.730469 32.402344 L 496.265625 32.402344 L 488.589844 52.707031 Z M 422.074219 304.269531 L 407.414062 294.027344 L 407.414062 133.128906 L 422.074219 122.890625 Z M 728.46875 403.773438 L 504.808594 403.773438 C 502.078125 403.773438 499.847656 406.003906 499.847656 408.734375 L 499.847656 512.101562 C 499.847656 514.832031 502.078125 517.0625 504.808594 517.0625 L 728.46875 517.0625 C 758.457031 517.0625 778.253906 488.472656 778.253906 460.417969 C 778.253906 429.261719 755.851562 403.773438 728.46875 403.773438 Z M 693.425781 449.070312 L 544.390625 449.070312 C 537.082031 449.070312 531.160156 443.148438 531.160156 435.839844 C 531.160156 428.535156 537.082031 422.613281 544.390625 422.613281 L 693.425781 422.613281 C 700.730469 422.613281 706.65625 428.535156 706.65625 435.839844 C 706.65625 443.148438 700.730469 449.070312 693.425781 449.070312 Z M 473.390625 426.3125 L 438.082031 426.3125 C 433.527344 426.3125 429.8125 430.027344 429.8125 434.578125 L 429.8125 486.253906 C 429.8125 490.808594 433.527344 494.523438 438.082031 494.523438 L 473.390625 494.523438 Z M 692.179688 585.480469 L 414.546875 585.480469 C 353.960938 585.480469 304.851562 634.59375 304.851562 695.175781 C 304.851562 755.761719 353.964844 804.875 414.546875 804.875 C 456.1875 804.875 492.40625 781.675781 510.988281 747.496094 L 595.742188 747.496094 C 614.320312 781.675781 650.542969 804.875 692.179688 804.875 C 752.765625 804.875 801.878906 755.761719 801.878906 695.175781 C 801.878906 634.59375 752.765625 585.480469 692.179688 585.480469 Z M 358.90625 712.546875 C 349.226562 712.546875 341.378906 704.699219 341.378906 695.015625 C 341.378906 685.335938 349.226562 677.484375 358.90625 677.484375 C 368.589844 677.484375 376.4375 685.335938 376.4375 695.015625 C 376.4375 704.699219 368.589844 712.546875 358.90625 712.546875 Z M 414.546875 768.1875 C 404.863281 768.1875 397.015625 760.335938 397.015625 750.65625 C 397.015625 740.976562 404.863281 733.125 414.546875 733.125 C 424.226562 733.125 432.078125 740.972656 432.078125 750.65625 C 432.078125 760.335938 424.226562 768.1875 414.546875 768.1875 Z M 414.546875 656.910156 C 404.863281 656.910156 397.015625 649.0625 397.015625 639.378906 C 397.015625 629.699219 404.863281 621.851562 414.546875 621.851562 C 424.226562 621.851562 432.078125 629.699219 432.078125 639.378906 C 432.078125 649.0625 424.226562 656.910156 414.546875 656.910156 Z M 470.183594 712.546875 C 460.503906 712.546875 452.652344 704.699219 452.652344 695.015625 C 452.652344 685.335938 460.503906 677.484375 470.183594 677.484375 C 479.863281 677.484375 487.714844 685.335938 487.714844 695.015625 C 487.714844 704.699219 479.863281 712.546875 470.183594 712.546875 Z M 573.257812 691.710938 L 533.46875 691.710938 C 526.164062 691.710938 520.238281 685.789062 520.238281 678.480469 C 520.238281 671.175781 526.164062 665.253906 533.46875 665.253906 L 573.257812 665.253906 C 580.566406 665.253906 586.488281 671.175781 586.488281 678.480469 C 586.488281 685.789062 580.566406 691.710938 573.257812 691.710938 Z M 590.15625 647.945312 L 516.570312 647.945312 C 509.265625 647.945312 503.339844 642.019531 503.339844 634.714844 C 503.339844 627.410156 509.265625 621.484375 516.570312 621.484375 L 590.15625 621.484375 C 597.460938 621.484375 603.386719 627.410156 603.386719 634.714844 C 603.386719 642.019531 597.460938 647.945312 590.15625 647.945312 Z M 636.542969 712.546875 C 626.859375 712.546875 619.011719 704.699219 619.011719 695.019531 C 619.011719 685.335938 626.859375 677.488281 636.542969 677.488281 C 646.222656 677.488281 654.074219 685.335938 654.074219 695.019531 C 654.074219 704.699219 646.226562 712.546875 636.542969 712.546875 Z M 692.179688 768.1875 C 682.5 768.1875 674.648438 760.335938 674.648438 750.65625 C 674.648438 740.976562 682.5 733.125 692.179688 733.125 C 701.863281 733.125 709.710938 740.976562 709.710938 750.65625 C 709.710938 760.335938 701.863281 768.1875 692.179688 768.1875 Z M 692.179688 656.910156 C 682.5 656.910156 674.648438 649.0625 674.648438 639.378906 C 674.648438 629.699219 682.5 621.851562 692.179688 621.851562 C 701.863281 621.851562 709.710938 629.699219 709.710938 639.378906 C 709.710938 649.0625 701.863281 656.910156 692.179688 656.910156 Z M 747.820312 712.546875 C 738.136719 712.546875 730.289062 704.699219 730.289062 695.019531 C 730.289062 685.335938 738.136719 677.488281 747.820312 677.488281 C 757.5 677.488281 765.351562 685.335938 765.351562 695.019531 C 765.351562 704.699219 757.5 712.546875 747.820312 712.546875 Z M 309.960938 163.613281 C 323.261719 163.613281 334.140625 174.492188 334.140625 187.789062 L 334.140625 228.382812 C 334.140625 241.683594 323.261719 252.558594 309.964844 252.558594 C 296.667969 252.558594 285.789062 241.683594 285.789062 228.382812 L 285.789062 187.789062 C 285.785156 174.492188 296.664062 163.613281 309.960938 163.613281 Z M 32.292969 163.613281 C 45.589844 163.613281 56.472656 174.492188 56.472656 187.789062 L 56.472656 228.382812 C 56.472656 241.683594 45.589844 252.558594 32.296875 252.558594 C 19 252.558594 8.121094 241.683594 8.121094 228.382812 L 8.121094 187.789062 C 8.121094 174.492188 19 163.613281 32.292969 163.613281 Z M 34.277344 137.199219 C 89.65625 5.050781 252.601562 5.050781 307.980469 137.199219 C 298.71875 137.558594 290.074219 140.4375 282.71875 145.164062 C 235.953125 37.59375 106.300781 37.59375 59.539062 145.164062 C 52.183594 140.433594 43.539062 137.558594 34.277344 137.199219 Z M 69.195312 363.46875 L 81.472656 400.574219 C 82.609375 404.019531 85.691406 406.246094 89.320312 406.246094 L 186.988281 406.246094 C 190.617188 406.246094 193.699219 404.015625 194.839844 400.574219 L 207.113281 363.46875 Z M 241.761719 363.46875 L 234.980469 363.46875 L 219.957031 408.882812 C 215.234375 423.15625 202.023438 432.703125 186.988281 432.703125 L 89.320312 432.703125 C 74.285156 432.703125 61.074219 423.15625 56.351562 408.882812 L 41.328125 363.46875 L 34.546875 363.46875 C 25.207031 363.46875 17.5625 372.007812 17.5625 382.445312 L 17.5625 782.792969 C 17.5625 793.230469 25.207031 801.769531 34.546875 801.769531 L 241.765625 801.769531 C 251.101562 801.769531 258.746094 793.226562 258.746094 782.792969 L 258.746094 382.445312 C 258.742188 372.011719 251.101562 363.46875 241.761719 363.46875 Z M 155.535156 771.207031 L 120.773438 771.207031 C 113.496094 771.207031 107.59375 765.304688 107.59375 758.027344 C 107.59375 750.75 113.496094 744.851562 120.773438 744.851562 L 155.535156 744.851562 C 162.8125 744.851562 168.714844 750.75 168.714844 758.027344 C 168.714844 765.304688 162.8125 771.207031 155.535156 771.207031 Z M 155.535156 771.207031 "
            fill-opacity="1" fill-rule="evenodd" />
    </g>
</svg>
