<?xml version="1.0" encoding="iso-8859-1"?>
<!-- Uploaded to: SVG Repo, www.svgrepo.com, Generator: SVG Repo Mixer Tools -->
<svg fill="#1c274c" version="1.1" id="Layer_1" xmlns="http://www.w3.org/2000/svg"
    xmlns:xlink="http://www.w3.org/1999/xlink"
    viewBox="0 0 490 490" xml:space="preserve">
<g>
	<g>
		<g>
			<path d="M480,220H300V10c0-5.522-4.477-10-10-10H10C4.477,0,0,4.478,0,10v470c0,5.522,4.477,10,10,10h265c5.523,0,10-4.478,10-10
				v-30h120v30c0,5.522,4.477,10,10,10h35c5.523,0,10-4.478,10-10v-30h5c5.523,0,10-4.478,10-10V275h5c5.523,0,10-4.478,10-10v-35
				C490,224.478,485.523,220,480,220z M140,470H20v-85h120V470z M140,365H20V20h120V365z M230,470h-70V20h120v200h-75
				c-5.523,0-10,4.478-10,10v35c0,5.522,4.477,10,10,10h10v165c0,5.522,4.477,10,10,10h5V470z M265,470h-15v-20h15V470z M440,470
				h-15v-20h15V470z M455,430H235v-70h220V430z M455,340H235v-65h220V340z M470,255H215v-15h255V255z"/>
			<rect x="330" y="295" width="30" height="20"/>
			<rect x="330" y="380" width="30" height="20"/>
			<rect x="180" y="160" width="20" height="40"/>
			<rect x="100" y="160" width="20" height="40"/>
			<rect x="65" y="415" width="30" height="20"/>
		</g>
	</g>
</g>
</svg>
