<?xml version="1.0" encoding="UTF-8"?>
<svg xmlns="http://www.w3.org/2000/svg" id="Layer_1" data-name="Layer 1" viewBox="0 0 24 24">
  <path d="m22.813,7.635L13.908.659c-1.123-.881-2.693-.881-3.816,0L1.187,7.635c-.754.592-1.187,1.48-1.187,2.439v13.926h24v-13.926c0-.958-.433-1.847-1.187-2.439Zm-.813,14.365H2v-11.926c0-.335.157-.658.42-.865L11.326,2.233c.396-.311.95-.312,1.348,0l8.905,6.977c.264.207.421.53.421.865v11.926Zm-7.77-13c-.89,0-1.675.318-2.25.852-.575-.533-1.36-.852-2.25-.852-1.792,0-3.25,1.539-3.25,3.43,0,2.982,4.425,6.141,4.93,6.491l.57.396.57-.396c.505-.35,4.93-3.509,4.93-6.491,0-1.892-1.458-3.43-3.25-3.43Zm-2.249,7.858c-1.414-1.1-3.501-3.096-3.501-4.428,0-.789.561-1.43,1.25-1.43.576,0,1.25.316,1.25,1.209h.02v.791h2v-1h-.005c.096-.689.668-1,1.236-1,.689,0,1.25.642,1.25,1.43,0,1.239-1.891,3.186-3.499,4.428Z"/>
</svg>
