<svg xmlns="http://www.w3.org/2000/svg" xmlns:xlink="http://www.w3.org/1999/xlink" width="1080" zoomAndPan="magnify" viewBox="0 0 810 809.999993" height="1080" preserveAspectRatio="xMidYMid meet" version="1.0"><defs><clipPath id="29b1ec5b53"><path d="M 75 29.03125 L 749 29.03125 L 749 740 L 75 740 Z M 75 29.03125 " clip-rule="nonzero"/></clipPath></defs><g clip-path="url(#29b1ec5b53)"><path fill="#1c274c" d="M 748.542969 277.992188 L 75.046875 277.992188 L 75.046875 595.5 C 75.046875 675.203125 139.664062 739.820312 219.367188 739.820312 L 248.230469 739.820312 L 248.230469 518.527344 C 248.230469 490.472656 259.390625 463.53125 279.210938 443.675781 C 299.070312 423.855469 326.011719 412.691406 354.066406 412.691406 L 469.523438 412.691406 C 497.578125 412.691406 524.519531 423.855469 544.375 443.675781 C 564.195312 463.53125 575.359375 490.472656 575.359375 518.527344 L 575.359375 739.820312 L 604.222656 739.820312 C 683.925781 739.820312 748.542969 675.203125 748.542969 595.5 Z M 305.960938 739.820312 L 305.960938 518.527344 C 305.960938 505.75 311.039062 493.550781 320.046875 484.507812 C 329.089844 475.5 341.289062 470.421875 354.066406 470.421875 C 354.066406 470.421875 469.523438 470.421875 469.523438 470.421875 C 482.300781 470.421875 494.5 475.5 503.542969 484.507812 C 512.550781 493.550781 517.628906 505.75 517.628906 518.527344 L 517.628906 739.820312 Z M 392.550781 662.847656 L 431.039062 662.847656 C 446.96875 662.847656 459.902344 649.917969 459.902344 633.984375 C 459.902344 618.050781 446.96875 605.121094 431.039062 605.121094 L 392.550781 605.121094 C 376.617188 605.121094 363.6875 618.050781 363.6875 633.984375 C 363.6875 649.917969 376.617188 662.847656 392.550781 662.847656 Z M 392.550781 566.636719 L 431.039062 566.636719 C 446.96875 566.636719 459.902344 553.703125 459.902344 537.769531 C 459.902344 521.839844 446.96875 508.90625 431.039062 508.90625 L 392.550781 508.90625 C 376.617188 508.90625 363.6875 521.839844 363.6875 537.769531 C 363.6875 553.703125 376.617188 566.636719 392.550781 566.636719 Z M 75.046875 220.265625 L 748.542969 220.265625 L 748.542969 172.160156 C 748.542969 92.457031 683.925781 27.839844 604.222656 27.839844 L 219.367188 27.839844 C 139.664062 27.839844 75.046875 92.457031 75.046875 172.160156 Z M 334.824219 162.539062 L 488.765625 162.539062 C 504.699219 162.539062 517.628906 149.605469 517.628906 133.671875 C 517.628906 117.742188 504.699219 104.808594 488.765625 104.808594 L 334.824219 104.808594 C 318.890625 104.808594 305.960938 117.742188 305.960938 133.671875 C 305.960938 149.605469 318.890625 162.539062 334.824219 162.539062 Z M 334.824219 162.539062 " fill-opacity="1" fill-rule="evenodd"/></g><path fill="#1c274c" d="M 575.359375 710.957031 L 575.359375 749.441406 C 575.359375 765.375 588.289062 778.304688 604.222656 778.304688 C 620.15625 778.304688 633.085938 765.375 633.085938 749.441406 L 633.085938 710.957031 C 633.085938 695.023438 620.15625 682.089844 604.222656 682.089844 C 588.289062 682.089844 575.359375 695.023438 575.359375 710.957031 Z M 575.359375 710.957031 " fill-opacity="1" fill-rule="evenodd"/><path fill="#1c274c" d="M 190.503906 710.957031 L 190.503906 749.441406 C 190.503906 765.375 203.433594 778.304688 219.367188 778.304688 C 235.300781 778.304688 248.230469 765.375 248.230469 749.441406 L 248.230469 710.957031 C 248.230469 695.023438 235.300781 682.089844 219.367188 682.089844 C 203.433594 682.089844 190.503906 695.023438 190.503906 710.957031 Z M 190.503906 710.957031 " fill-opacity="1" fill-rule="evenodd"/><path fill="#1c274c" d="M 75.046875 220.265625 L 65.425781 220.265625 C 28.25 220.265625 -1.925781 250.398438 -1.925781 287.617188 L -1.925781 364.585938 C -1.925781 401.800781 28.25 431.9375 65.425781 431.9375 L 75.046875 431.9375 Z M 75.046875 220.265625 " fill-opacity="1" fill-rule="evenodd"/><path fill="#1c274c" d="M 748.542969 220.265625 L 748.542969 431.9375 L 758.164062 431.9375 C 795.339844 431.9375 825.511719 401.800781 825.511719 364.585938 L 825.511719 287.617188 C 825.511719 250.398438 795.339844 220.265625 758.164062 220.265625 Z M 748.542969 220.265625 " fill-opacity="1" fill-rule="evenodd"/></svg>