<?xml version="1.0" encoding="UTF-8"?>
<svg xmlns="http://www.w3.org/2000/svg" id="Layer_1" data-name="Layer 1" viewBox="0 0 24 24">
  <path d="m14.932,6.5l1.668-2.11c.594-.791.514-1.915-.216-2.644l-1.612-1.482c-.185-.169-.426-.264-.677-.264h-4.19c-.25,0-.492.094-.677.264l-1.642,1.511c-.7.7-.779,1.824-.17,2.634l1.653,2.091c-3.526,1.22-6.068,4.565-6.068,8.5,0,4.962,4.038,9,9,9s9-4.038,9-9c0-3.935-2.543-7.28-6.068-8.5Zm-5.962-3.282l1.325-1.218h3.418l1.303,1.169-2.268,2.869c-.247-.02-.495-.038-.747-.038-.254,0-.504.017-.753.038l-2.277-2.82Zm3.03,18.782c-3.86,0-7-3.14-7-7s3.14-7,7-7,7,3.14,7,7-3.14,7-7,7Z"/>
</svg>
