<svg xmlns="http://www.w3.org/2000/svg" xmlns:xlink="http://www.w3.org/1999/xlink" width="1080" zoomAndPan="magnify" viewBox="0 0 810 809.999993" height="1080" preserveAspectRatio="xMidYMid meet" version="1.0"><defs><clipPath id="f9a98eb153"><path d="M 203.464844 0 L 606.214844 0 L 606.214844 810 L 203.464844 810 Z M 203.464844 0 " clip-rule="nonzero"/></clipPath></defs><g clip-path="url(#f9a98eb153)"><path fill="#1c274c" d="M 540.878906 809.996094 L 269.121094 809.996094 C 232.816406 809.996094 203.464844 780.644531 203.464844 744.34375 L 203.464844 65.65625 C 203.464844 29.355469 232.816406 0.00390625 269.121094 0.00390625 L 540.878906 0.00390625 C 577.179688 0.00390625 606.53125 29.355469 606.53125 65.65625 L 606.53125 744.34375 C 606.53125 780.644531 577.179688 809.996094 540.878906 809.996094 Z M 540.878906 809.996094 " fill-opacity="1" fill-rule="nonzero"/></g><path fill="#1c274c" d="M 535.214844 789.65625 L 274.914062 789.65625 C 246.71875 789.65625 223.804688 766.742188 223.804688 738.550781 L 223.804688 71.449219 C 223.804688 43.257812 246.71875 20.34375 274.914062 20.34375 L 535.214844 20.34375 C 563.40625 20.34375 586.320312 43.257812 586.320312 71.449219 L 586.320312 738.550781 C 586.320312 766.742188 563.40625 789.65625 535.214844 789.65625 Z M 535.214844 789.65625 " fill-opacity="1" fill-rule="nonzero"/><path fill="#8d93a5" d="M 535.726562 27.9375 L 503.417969 27.9375 L 503.417969 43.773438 C 503.417969 51.882812 496.851562 58.320312 488.871094 58.320312 L 320.742188 58.320312 C 312.632812 58.320312 306.195312 51.753906 306.195312 43.773438 L 306.195312 27.9375 L 274.269531 27.9375 C 250.066406 27.9375 230.5 47.503906 230.5 71.707031 L 230.5 738.808594 C 230.5 763.007812 250.066406 782.578125 274.269531 782.578125 L 535.726562 782.578125 C 559.929688 782.578125 579.496094 763.007812 579.496094 738.808594 L 579.496094 71.707031 C 579.496094 47.503906 559.929688 27.9375 535.726562 27.9375 Z M 535.726562 27.9375 " fill-opacity="1" fill-rule="nonzero"/></svg>