<?xml version="1.0" encoding="utf-8"?>

<!-- Uploaded to: SVG Repo, www.svgrepo.com, Generator: SVG Repo Mixer Tools -->
<svg version="1.1" id="Icons" xmlns="http://www.w3.org/2000/svg"
    xmlns:xlink="http://www.w3.org/1999/xlink"
    viewBox="0 0 32 32" xml:space="preserve">
<style type="text/css">
	.st0{fill:none;stroke:#000000;stroke-width:2;stroke-linecap:round;stroke-linejoin:round;stroke-miterlimit:10;}
	.st1{fill:none;stroke:#000000;stroke-width:2;stroke-linejoin:round;stroke-miterlimit:10;}
</style>
<ellipse class="st0" cx="16" cy="12.9" rx="8" ry="8.1"/>
<path class="st0" d="M8,12c-1.7-0.4-3-2-3-4C5,5.8,6.8,4,9,4c1.3,0,2.5,0.7,3.2,1.7"/>
<path class="st0" d="M19.8,5.7C20.5,4.7,21.7,4,23,4c2.2,0,4,1.8,4,4.1c0,1.9-1.3,3.5-3,4"/>
<line class="st0" x1="14" y1="12" x2="14" y2="13"/>
<line class="st0" x1="18" y1="12" x2="18" y2="13"/>
<line class="st0" x1="16" y1="14" x2="16" y2="16"/>
<ellipse transform="matrix(0.7087 -0.7055 0.7055 0.7087 -14.8111 13.1311)" class="st0" cx="8.5" cy="24.5" rx="2.8" ry="4.1"/>
<ellipse transform="matrix(0.7055 -0.7087 0.7087 0.7055 -10.441 23.8715)" class="st0" cx="23.5" cy="24.5" rx="4.1" ry="2.8"/>
<path class="st0" d="M9,21.4c0-0.1,0-0.3,0-0.4c0-1.1,0.3-2.2,0.7-3.1"/>
<path class="st0" d="M20.2,26.6C19,27.5,17.6,28,16,28c-1.6,0-3-0.5-4.2-1.4"/>
<path class="st0" d="M22.3,17.9c0.5,0.9,0.7,2,0.7,3.1c0,0.1,0,0.3,0,0.4"/>
<path class="st0" d="M6.2,21.3C6.1,20.9,6,20.4,6,20c0-2,1.1-3.7,2.6-4"/>
<path class="st0" d="M23.4,16c1.5,0.2,2.6,1.9,2.6,4c0,0.4-0.1,0.9-0.2,1.3"/>
<path class="st0" d="M10,18c0-2.2,2.7-4,6-4s6,1.8,6,4"/>
</svg>
