<svg xmlns="http://www.w3.org/2000/svg" xmlns:xlink="http://www.w3.org/1999/xlink" width="1080" zoomAndPan="magnify" viewBox="0 0 810 809.999993" height="1080" preserveAspectRatio="xMidYMid meet" version="1.0"><defs><clipPath id="cefebc0b12"><path d="M 48.601562 62 L 761.101562 62 L 761.101562 810 L 48.601562 810 Z M 48.601562 62 " clip-rule="nonzero"/></clipPath></defs><path fill="#1c274c" d="M 646.621094 262.847656 L 594.535156 278.355469 C 563.109375 287.707031 543.082031 294.386719 543.988281 295.207031 C 544.8125 295.953125 564.902344 306.035156 588.640625 317.636719 L 631.277344 352.054688 L 750.109375 305.238281 C 750.109375 304.738281 738.707031 299.800781 724.878906 294.289062 C 711.054688 288.78125 687.773438 279.480469 673.160156 273.582031 L 646.617188 262.847656 Z M 646.621094 262.847656 " fill-opacity="1" fill-rule="nonzero"/><g clip-path="url(#cefebc0b12)"><path fill="#1c274c" d="M 448.566406 62.457031 C 447.664062 62.566406 446.761719 62.855469 445.898438 63.125 L 52.113281 194.789062 C 51.320312 196.175781 50.269531 202.136719 49.578125 203.59375 C 49.28125 204.539062 49.25 205.105469 49.175781 205.59375 C 49.027344 206.566406 48.914062 207.078125 48.910156 207.460938 L 48.910156 208.792969 C 48.953125 209.324219 49.011719 209.480469 49.042969 209.726562 C 49.105469 210.222656 49.242188 210.679688 49.308594 211.195312 C 49.453125 212.226562 49.695312 213.496094 49.976562 215.199219 L 118.808594 599.910156 C 119.402344 603.144531 121.199219 606.234375 123.742188 608.316406 L 128.011719 611.785156 C 208.382812 674.300781 282.550781 741.140625 363.054688 804.140625 C 364.207031 805.039062 365.066406 805.824219 365.859375 806.410156 C 366.25 806.703125 366.558594 806.875 367.058594 807.210938 C 367.304688 807.378906 367.523438 807.664062 368.125 808.007812 C 368.425781 808.179688 368.9375 808.328125 369.726562 808.675781 C 370.492188 809.011719 371.007812 809.863281 375.460938 809.742188 L 375.460938 809.875 L 375.726562 809.875 L 375.726562 809.742188 C 376.070312 809.691406 379.636719 809.273438 381.195312 808.542969 C 382.835938 807.78125 384.007812 806.765625 384.933594 805.875 L 757.90625 600.980469 C 761.03125 596.925781 760.390625 596.1875 760.574219 595.375 C 760.761719 594.566406 760.789062 594.175781 760.839844 593.777344 C 760.941406 592.976562 760.933594 592.394531 760.972656 591.773438 C 761.058594 590.535156 761.0625 589.207031 761.105469 587.507812 L 751.507812 316.449219 L 750.964844 304.972656 L 743.308594 306.445312 L 631.515625 350.175781 C 629.976562 344.078125 629.769531 343.1875 631.296875 340.292969 L 680.5 278.042969 C 680.160156 277.167969 723.867188 256.277344 723.578125 255.375 C 719.566406 242.910156 735.960938 243.828125 735.757812 230.269531 L 725.886719 156.101562 L 454.035156 62.992188 C 452.242188 62.457031 450.425781 62.390625 448.566406 62.59375 Z M 448.566406 62.457031 " fill-opacity="1" fill-rule="nonzero"/></g><path fill="#1c274c" d="M 450.03125 0.0234375 C 449.574219 0.0507812 449.128906 0.136719 448.695312 0.285156 L 366.523438 30.566406 C 365.675781 30.871094 364.964844 31.371094 364.390625 32.0625 C 363.816406 32.757812 363.460938 33.550781 363.320312 34.441406 C 363.183594 35.328125 363.28125 36.191406 363.617188 37.027344 C 363.949219 37.863281 364.476562 38.554688 365.191406 39.105469 L 420.816406 83.390625 C 421.460938 83.890625 422.183594 84.210938 422.984375 84.355469 C 423.789062 84.496094 424.578125 84.441406 425.351562 84.191406 L 506.058594 57.910156 C 506.914062 57.660156 507.648438 57.207031 508.261719 56.550781 C 508.871094 55.898438 509.273438 55.132812 509.46875 54.261719 C 509.660156 53.386719 509.621094 52.523438 509.34375 51.675781 C 509.070312 50.824219 508.59375 50.101562 507.925781 49.507812 L 453.765625 1.21875 C 453.253906 0.769531 452.671875 0.4375 452.023438 0.230469 C 451.375 0.0234375 450.710938 -0.0507812 450.03125 0.0195312 Z M 450.03125 0.0234375 " fill-opacity="1" fill-rule="nonzero"/><path fill="#1c274c" d="M 241.808594 141.15625 L 249.34375 222.5 L 169.125 168.441406 L 174.667969 92.972656 L 241.808594 141.152344 Z M 241.808594 141.15625 " fill-opacity="1" fill-rule="nonzero"/><path fill="#1c274c" d="M 378.003906 91.777344 L 241.808594 141.148438 L 249.34375 222.492188 L 385.667969 173.140625 Z M 378.003906 91.777344 " fill-opacity="1" fill-rule="nonzero"/><path fill="#1c274c" d="M 387.59375 201.929688 L 394.941406 280.605469 L 298.863281 256.476562 L 291.585938 177.738281 Z M 387.59375 201.929688 " fill-opacity="1" fill-rule="nonzero"/><path fill="#1c274c" d="M 387.59375 201.929688 L 394.941406 280.605469 L 493.410156 215.277344 L 486.078125 136.515625 Z M 387.59375 201.929688 " fill-opacity="1" fill-rule="nonzero"/><path fill="#1c274c" d="M 363.738281 35.800781 L 424.035156 79.496094 L 430.859375 150.496094 L 351.335938 99.234375 Z M 363.738281 35.800781 " fill-opacity="1" fill-rule="nonzero"/><path fill="#1c274c" d="M 424.035156 79.480469 L 430.863281 150.480469 L 485.910156 119.933594 L 509.007812 52.945312 L 424.039062 79.480469 Z M 424.035156 79.480469 " fill-opacity="1" fill-rule="nonzero"/><path fill="#1c274c" d="M 523.125 61.535156 C 522.761719 61.585938 522.40625 61.675781 522.058594 61.800781 L 436.953125 93.015625 C 436.492188 93.183594 436.066406 93.410156 435.671875 93.695312 C 435.277344 93.984375 434.929688 94.316406 434.625 94.703125 C 434.324219 95.085938 434.082031 95.5 433.894531 95.953125 C 433.710938 96.402344 433.589844 96.871094 433.53125 97.355469 C 433.476562 97.839844 433.488281 98.324219 433.570312 98.804688 C 433.648438 99.285156 433.792969 99.75 434 100.191406 C 434.207031 100.632812 434.46875 101.035156 434.789062 101.402344 C 435.109375 101.773438 435.476562 102.089844 435.882812 102.355469 L 507.917969 150.246094 C 508.65625 150.71875 509.460938 150.992188 510.335938 151.0625 C 511.210938 151.132812 512.046875 150.996094 512.851562 150.644531 L 608.097656 111.960938 C 608.550781 111.757812 608.964844 111.5 609.34375 111.179688 C 609.722656 110.859375 610.050781 110.496094 610.328125 110.082031 C 610.601562 109.671875 610.8125 109.230469 610.964844 108.757812 C 611.117188 108.285156 611.199219 107.804688 611.210938 107.308594 C 611.226562 106.8125 611.171875 106.328125 611.046875 105.847656 C 610.921875 105.367188 610.734375 104.914062 610.484375 104.488281 C 610.230469 104.0625 609.925781 103.679688 609.566406 103.339844 C 609.203125 103 608.804688 102.714844 608.363281 102.488281 L 526.191406 62.070312 C 525.222656 61.574219 524.203125 61.398438 523.125 61.535156 Z M 523.125 61.535156 " fill-opacity="1" fill-rule="nonzero"/><path fill="#1c274c" d="M 321.171875 62.316406 C 320.855469 62.363281 320.546875 62.382812 320.238281 62.449219 L 179.640625 86.59375 C 174.753906 87.460938 172.835938 94.960938 176.703125 98.066406 L 237.800781 146.222656 C 239.523438 147.613281 241.984375 148.035156 244.070312 147.289062 L 379.335938 112.339844 C 381.78125 111.429688 383.539062 108.925781 383.570312 106.316406 C 383.609375 103.707031 381.890625 101.164062 379.464844 100.203125 L 323.707031 62.851562 C 322.910156 62.503906 322.039062 62.324219 321.171875 62.316406 L 321.171875 62.320312 Z M 321.171875 62.316406 " fill-opacity="1" fill-rule="nonzero"/><path fill="#1c274c" d="M 606.097656 107.089844 L 612.886719 180.632812 L 517.648438 219.269531 L 510.863281 145.828125 L 606.09375 107.089844 Z M 606.097656 107.089844 " fill-opacity="1" fill-rule="nonzero"/><path fill="#1c274c" d="M 623.308594 86.746094 C 622.496094 86.773438 621.738281 86.996094 621.039062 87.414062 L 533.664062 140.636719 C 533.246094 140.878906 532.875 141.179688 532.546875 141.539062 C 532.222656 141.894531 531.953125 142.292969 531.75 142.730469 C 531.542969 143.171875 531.40625 143.628906 531.339844 144.109375 C 531.273438 144.589844 531.28125 145.066406 531.363281 145.542969 C 531.441406 146.023438 531.589844 146.476562 531.808594 146.910156 C 532.027344 147.34375 532.304688 147.730469 532.640625 148.082031 C 532.976562 148.429688 533.359375 148.71875 533.785156 148.949219 C 534.207031 149.183594 534.660156 149.34375 535.132812 149.441406 L 626.109375 169.714844 C 627.335938 169.996094 628.492188 169.816406 629.578125 169.183594 L 731.226562 111.289062 C 731.644531 111.035156 732.019531 110.726562 732.339844 110.359375 C 732.664062 109.988281 732.925781 109.582031 733.125 109.132812 C 733.324219 108.6875 733.449219 108.21875 733.503906 107.730469 C 733.558594 107.242188 733.539062 106.761719 733.445312 106.277344 C 733.347656 105.796875 733.183594 105.34375 732.949219 104.914062 C 732.714844 104.480469 732.421875 104.097656 732.066406 103.757812 C 731.714844 103.417969 731.316406 103.140625 730.878906 102.921875 C 730.4375 102.707031 729.976562 102.558594 729.492188 102.484375 L 624.242188 86.878906 C 623.933594 86.804688 623.621094 86.757812 623.308594 86.746094 Z M 623.308594 86.746094 " fill-opacity="1" fill-rule="nonzero"/><path fill="#1c274c" d="M 627.128906 164.96875 L 729.070312 105.425781 C 730.644531 105.609375 731.851562 103.886719 733.089844 106.140625 L 736.222656 244.527344 C 736.328125 249.5 736.707031 252.871094 730.949219 255.441406 L 639.300781 314.191406 Z M 627.128906 164.96875 " fill-opacity="1" fill-rule="nonzero"/><path fill="#d1d2d7" d="M 450.363281 5.03125 L 368.296875 35.238281 L 423.886719 79.488281 L 504.640625 53.296875 Z M 450.363281 5.03125 " fill-opacity="1" fill-rule="nonzero"/><path fill="#d1d2d7" d="M 63.027344 207.699219 C 62.839844 207.953125 67.910156 237.144531 74.265625 272.605469 C 84.265625 328.367188 86.175781 337.414062 88.582031 339.28125 C 91.859375 341.828125 150.921875 372.011719 152.417969 371.90625 C 152.984375 371.859375 148.929688 342.839844 143.449219 307.429688 C 137.964844 272.019531 133.109375 242.234375 132.636719 241.238281 C 131.820312 239.523438 63.757812 206.726562 63.027344 207.699219 Z M 63.027344 207.699219 " fill-opacity="1" fill-rule="nonzero"/><path fill="#d1d2d7" d="M 143.8125 245.183594 L 144.136719 250.121094 C 144.316406 252.824219 148.929688 282.785156 154.398438 316.71875 L 164.335938 378.425781 L 201.640625 397.398438 C 222.15625 407.839844 239.015625 416.277344 239.101562 416.164062 C 239.1875 416.050781 235.457031 385.902344 230.800781 349.144531 L 222.339844 282.292969 L 143.808594 245.183594 Z M 143.8125 245.183594 " fill-opacity="1" fill-rule="nonzero"/><path fill="#d1d2d7" d="M 610.867188 219.855469 C 601.902344 222.09375 474.628906 270.109375 473.058594 271.914062 C 472.585938 272.460938 474.636719 295.210938 477.648438 322.496094 C 480.65625 349.777344 483.867188 380.285156 484.789062 390.289062 C 485.703125 400.292969 487.042969 408.367188 487.726562 408.25 C 488.417969 408.148438 518.558594 395.8125 554.699219 380.871094 C 590.84375 365.929688 620.667969 353.359375 620.984375 352.933594 C 621.984375 351.597656 612.535156 220.652344 611.375 219.78125 C 611.304688 219.730469 611.152344 219.734375 610.867188 219.851562 Z M 610.867188 219.855469 " fill-opacity="1" fill-rule="nonzero"/><path fill="#d1d2d7" d="M 232.003906 286.964844 L 241.015625 353.695312 C 247.773438 403.800781 250.527344 420.859375 252.066406 422.199219 C 254.554688 424.371094 330.972656 463.539062 332.550781 463.445312 C 333.167969 463.398438 330.183594 439.003906 325.9375 409.210938 C 321.6875 379.414062 317.726562 348.527344 317.125 340.574219 L 316.046875 326.109375 L 311.917969 325.191406 C 309.664062 324.683594 292.6875 316.765625 274.203125 307.59375 C 255.71875 298.417969 238.695312 290.019531 236.332031 288.933594 L 232.007812 286.964844 Z M 232.003906 286.964844 " fill-opacity="1" fill-rule="nonzero"/><path fill="#d1d2d7" d="M 460.855469 276.757812 C 453.992188 277.679688 329.71875 326.292969 328.324219 328.582031 C 327.15625 330.5 329.035156 346.742188 336.4375 398.589844 C 341.742188 435.726562 346.582031 466.054688 347.1875 465.960938 C 347.792969 465.875 376.945312 453.988281 411.996094 439.554688 C 447.046875 425.117188 476.1875 412.660156 476.71875 411.886719 C 477.253906 411.117188 474.589844 383.507812 470.828125 350.542969 C 467.066406 317.574219 463.886719 287.402344 463.746094 283.492188 C 463.53125 277.386719 463.121094 276.449219 460.859375 276.757812 Z M 460.855469 276.757812 " fill-opacity="1" fill-rule="nonzero"/><path fill="#d1d2d7" d="M 89.734375 352.890625 C 88.839844 354.082031 108.210938 464.46875 110.417969 470.785156 C 111.738281 474.558594 117.65625 478.957031 143.433594 495.261719 L 174.847656 515.125 L 172.292969 494.570312 C 170.878906 483.273438 166.355469 453.957031 162.234375 429.402344 L 154.730469 384.738281 L 122.585938 368.320312 C 104.90625 359.289062 90.128906 352.363281 89.734375 352.890625 Z M 89.734375 352.890625 " fill-opacity="1" fill-rule="nonzero"/><path fill="#d1d2d7" d="M 166.410156 391.230469 C 166.269531 391.542969 170.675781 421.082031 176.25 456.855469 C 184.039062 507.078125 186.816406 522.242188 188.492188 523.496094 C 189.683594 524.390625 206.074219 534.886719 224.90625 546.78125 L 259.160156 568.402344 L 255.527344 536.394531 C 253.53125 518.796875 249.550781 487.347656 246.683594 466.539062 L 241.476562 428.742188 L 204.066406 409.6875 C 183.492188 399.214844 166.554688 390.917969 166.414062 391.230469 Z M 166.410156 391.230469 " fill-opacity="1" fill-rule="nonzero"/><path fill="#d1d2d7" d="M 742.148438 314.8125 C 740.421875 315.0625 632.691406 359.042969 632.089844 359.765625 C 631.765625 360.152344 641.132812 499.40625 641.804688 504.183594 C 642.023438 505.746094 642.945312 506.523438 643.941406 505.996094 C 644.902344 505.484375 667.464844 495.652344 694.082031 484.171875 C 720.699219 472.6875 743.246094 462.628906 744.195312 461.832031 C 745.363281 460.859375 745.59375 438.257812 744.855469 392.359375 C 744.25 354.953125 743.757812 322.164062 743.800781 319.46875 C 743.851562 316.257812 743.300781 314.660156 742.148438 314.816406 Z M 742.148438 314.8125 " fill-opacity="1" fill-rule="nonzero"/><path fill="#d1d2d7" d="M 621.789062 363.882812 L 555.597656 391.148438 C 519.183594 406.144531 489.113281 418.746094 488.808594 419.15625 C 488.191406 419.976562 500.203125 533.480469 503.039062 553.71875 L 504.789062 566.394531 L 567.859375 539.011719 C 602.554688 523.941406 631.277344 511.164062 631.679688 510.625 C 632.394531 509.679688 623.976562 380.121094 622.5 369.28125 Z M 621.789062 363.882812 " fill-opacity="1" fill-rule="nonzero"/><path fill="#d1d2d7" d="M 252.019531 434.4375 C 251.644531 434.488281 255.9375 466.535156 261.574219 505.648438 L 271.820312 576.757812 L 312.613281 602.382812 L 353.40625 628.003906 L 351.609375 608.847656 C 350.632812 598.316406 346.246094 564.042969 341.863281 532.679688 L 333.914062 475.671875 L 293.3125 455.007812 C 270.972656 443.644531 252.390625 434.386719 252.019531 434.4375 Z M 252.019531 434.4375 " fill-opacity="1" fill-rule="nonzero"/><path fill="#d1d2d7" d="M 478.164062 423.96875 C 477.480469 423.457031 348.785156 475.816406 348.222656 476.835938 C 348.128906 477 352.371094 510.65625 357.628906 551.589844 C 367.054688 625.011719 367.179688 626.003906 369.921875 624.855469 C 371.449219 624.207031 400.113281 611.765625 433.617188 597.238281 L 494.523438 570.824219 L 493.214844 555.078125 C 490.882812 527.738281 479.035156 424.621094 478.164062 423.96875 Z M 478.164062 423.96875 " fill-opacity="1" fill-rule="nonzero"/><path fill="#d1d2d7" d="M 113.804688 490.367188 C 113.746094 490.367188 113.753906 490.4375 113.757812 490.472656 C 113.714844 491.617188 117.925781 516.175781 123.144531 545.019531 L 132.648438 597.4375 L 136.914062 600.964844 L 168.28125 626.753906 L 195.429688 649.011719 L 191.914062 621.125 C 189.984375 605.769531 185.902344 578.589844 182.78125 560.757812 L 177.117188 528.335938 L 145.5 508.359375 C 127.652344 497.097656 114.628906 489.722656 113.789062 490.371094 Z M 113.804688 490.367188 " fill-opacity="1" fill-rule="nonzero"/><path fill="#d1d2d7" d="M 189.914062 536.421875 L 193.410156 564.171875 C 195.328125 579.457031 199.496094 607.234375 202.734375 625.875 L 208.605469 659.773438 L 243.746094 688.601562 L 278.929688 717.417969 L 277.097656 697.988281 C 276.09375 687.292969 272.253906 656.851562 268.558594 630.296875 L 261.851562 581.992188 L 225.886719 559.210938 L 189.917969 536.421875 Z M 189.914062 536.421875 " fill-opacity="1" fill-rule="nonzero"/><path fill="#d1d2d7" d="M 743.242188 474.867188 C 738.578125 475.863281 725.808594 481.210938 693.949219 495.0625 C 665.925781 507.25 642.917969 517.332031 642.816406 517.5 C 642.71875 517.671875 644.363281 542.605469 646.496094 572.910156 C 648.632812 603.210938 650.507812 631.980469 650.691406 636.847656 C 651.003906 645.109375 651.203125 645.625 653.671875 644.222656 C 655.125 643.398438 676.414062 631.71875 700.96875 618.292969 C 725.523438 604.867188 746.125 593.21875 746.765625 592.386719 C 747.976562 590.816406 746.855469 479.171875 745.589844 475.183594 C 745.4375 474.714844 744.792969 474.53125 743.238281 474.867188 Z M 743.242188 474.867188 " fill-opacity="1" fill-rule="nonzero"/><path fill="#d1d2d7" d="M 632.421875 522.371094 C 631.414062 521.996094 506.636719 576.097656 505.871094 577.242188 C 505.582031 577.667969 508.339844 604.332031 511.980469 636.488281 C 515.621094 668.644531 518.90625 699.820312 519.285156 705.761719 C 519.664062 711.707031 520.347656 716.515625 520.8125 716.449219 C 521.277344 716.386719 548.648438 701.554688 581.632812 683.511719 L 641.585938 650.742188 L 641.703125 645.980469 C 641.863281 636.96875 633.277344 522.683594 632.421875 522.367188 Z M 632.421875 522.371094 " fill-opacity="1" fill-rule="nonzero"/><path fill="#d1d2d7" d="M 273.265625 589.578125 C 272.527344 589.410156 276.359375 620.464844 281.800781 658.582031 L 291.699219 727.910156 L 333.023438 761.871094 C 355.75 780.554688 374.753906 795.816406 375.234375 795.796875 C 375.71875 795.796875 372.84375 769.734375 368.847656 737.90625 C 364.855469 706.078125 360.34375 671.355469 358.820312 660.746094 L 356.007812 641.453125 L 315.285156 615.679688 C 292.886719 601.503906 273.984375 589.746094 273.25 589.578125 Z M 273.265625 589.578125 " fill-opacity="1" fill-rule="nonzero"/><path fill="#d1d2d7" d="M 495.730469 581.933594 C 495.171875 581.515625 457.628906 597.558594 371.339844 635.132812 C 369.019531 636.144531 369.558594 641.109375 379.695312 712.105469 C 385.679688 754.023438 391.082031 787.660156 391.746094 787.285156 L 452.441406 754.132812 L 511.921875 721.667969 L 510.703125 712.722656 C 510.003906 707.816406 506.507812 676.507812 502.929688 643.136719 C 499.355469 609.765625 496.125 582.21875 495.742188 581.929688 Z M 495.730469 581.933594 " fill-opacity="1" fill-rule="nonzero"/><path fill="#d1d2d7" d="M 183.433594 160.550781 L 132.101562 176.671875 C 103.871094 185.546875 80.460938 193.203125 80.101562 193.683594 C 79.742188 194.164062 80.515625 195.015625 81.824219 195.554688 C 83.132812 196.089844 96.589844 202.558594 111.703125 209.902344 C 126.816406 217.242188 140.175781 223.121094 141.398438 223.003906 C 142.621094 222.890625 166.167969 214.757812 193.714844 204.914062 C 221.261719 195.066406 244.238281 186.550781 244.738281 185.972656 C 245.234375 185.390625 231.648438 179.398438 214.546875 172.703125 Z M 183.433594 160.550781 " fill-opacity="1" fill-rule="nonzero"/><path fill="#d1d2d7" d="M 365.613281 231.9375 L 310.007812 254.351562 C 279.410156 266.683594 254.425781 277.15625 254.523438 277.597656 C 254.792969 278.792969 322.996094 311.484375 324.710938 311.246094 C 325.523438 311.132812 353.449219 300.714844 386.742188 288.101562 C 420.039062 275.484375 447.4375 264.925781 447.648438 264.644531 C 447.859375 264.363281 429.488281 256.902344 406.832031 248.050781 Z M 365.613281 231.9375 " fill-opacity="1" fill-rule="nonzero"/><path fill="#d1d2d7" d="M 258.238281 192.171875 C 256.601562 192.804688 233.03125 201.253906 205.875 210.929688 C 178.714844 220.609375 155.851562 228.8125 155.082031 229.179688 C 154.316406 229.550781 173.296875 239.253906 197.214844 250.710938 L 240.707031 271.527344 L 283.421875 254.335938 L 338.636719 232.164062 C 345.476562 229.40625 350.476562 226.730469 349.773438 226.203125 C 349.066406 225.675781 328.851562 217.535156 304.839844 208.128906 C 275.054688 196.460938 260.261719 191.386719 258.234375 192.171875 Z M 258.238281 192.171875 " fill-opacity="1" fill-rule="nonzero"/><path fill="#d1d2d7" d="M 388.617188 123.921875 L 291.554688 177.738281 L 387.539062 201.867188 L 486.070312 136.53125 Z M 388.617188 123.921875 " fill-opacity="1" fill-rule="nonzero"/><path fill="#d1d2d7" d="M 523.957031 66.734375 L 438.824219 97.96875 L 510.867188 145.828125 L 606.117188 107.128906 Z M 523.957031 66.734375 " fill-opacity="1" fill-rule="nonzero"/><path fill="#d1d2d7" d="M 321.3125 68.917969 L 180.753906 92.9375 L 241.800781 141.136719 L 377.535156 109.925781 Z M 321.3125 68.917969 " fill-opacity="1" fill-rule="nonzero"/><path fill="#d1d2d7" d="M 623.59375 91.539062 L 536.152344 144.75 L 627.152344 164.980469 L 728.808594 107.179688 L 623.589844 91.539062 Z M 623.59375 91.539062 " fill-opacity="1" fill-rule="nonzero"/><path fill="#d1d2d7" d="M 512.5625 172.992188 L 446.757812 199.355469 C 410.566406 213.859375 381.015625 226.121094 381.082031 226.59375 C 381.148438 227.066406 399.601562 234.605469 422.070312 243.398438 L 462.894531 259.378906 L 531.269531 233.585938 C 568.859375 219.386719 599.832031 207.433594 600.105469 207.074219 C 600.378906 206.707031 580.796875 198.886719 556.589844 189.6875 L 512.558594 172.992188 Z M 512.5625 172.992188 " fill-opacity="1" fill-rule="nonzero"/><path fill="#d1d2d7" d="M 729.375 119.480469 L 629.191406 177.710938 L 639.355469 307.292969 L 731.15625 248.617188 Z M 729.375 119.480469 " fill-opacity="1" fill-rule="nonzero"/></svg>